<svg width="900" height="900" viewBox="0 0 900 900" fill="none" xmlns="http://www.w3.org/2000/svg">
<rect width="900" height="900" transform="translate(0 0.000244141)"/>
<path fill-rule="evenodd" clip-rule="evenodd" d="M756.527 404.33C756.418 407.812 756.134 412.417 756.352 418.504C756.384 420.029 756.525 421.64 756.54 423.362C756.565 425.082 756.589 426.905 756.616 428.837C756.694 432.701 757.004 437 756.918 441.797C756.379 435.936 755.307 439.222 754.808 434.578C754.853 435.54 754.893 436.515 754.889 437.504C754.827 439.766 754.718 442.084 754.574 444.407C754.424 446.729 754.27 449.06 754.031 451.341C753.668 453.609 753.311 455.841 752.965 457.992C752.329 461.814 751.63 465.314 750.786 468.28C754.164 443.648 753.808 418.957 749.586 395.145C738.234 331.131 717.378 278.514 687.065 237.67C692.367 243.873 697.399 250.337 702.098 257.06C703.538 256.999 700.419 250.598 698.142 245.93C695.733 241.363 694.373 238.378 700.242 244.866C705.096 251.633 703.61 251.747 704.076 253.456L707.647 258.546L710.977 263.786C713.186 267.291 715.494 270.756 717.477 274.394L716.068 283.109C722.555 302.537 729.638 316.903 737.123 333.197C744.504 349.442 751.987 367.731 755.959 394.011C756.654 395.357 757.266 396.323 757.809 396.997C757.22 398.692 756.736 401.016 756.527 404.33ZM674.501 222.048C669.213 215.97 663.668 210.212 657.89 204.749C658.496 205.189 659.084 205.617 659.698 206.062C661.499 207.428 663.208 208.972 664.986 210.561C666.749 212.163 668.52 213.875 670.279 215.738C671.943 217.69 673.578 219.808 675.18 222.114C675.349 222.497 675.029 222.379 674.501 222.048ZM490.336 134.88C491.086 133.276 491.462 131.679 497.678 131.135C509.187 132.802 531.794 138.126 528.305 139.686C529.663 140.175 531.04 140.634 532.425 141.083C518.993 138.238 504.953 136.177 490.336 134.88ZM353.348 711.247C346.204 710.732 340.091 710.441 336.471 710.726C331.636 708.916 330.103 707.733 330.189 706.882C338.011 708.568 346.037 710.051 354.313 711.282C353.998 711.272 353.658 711.259 353.348 711.247ZM225.411 192.609C194.045 214.387 171.155 241.164 154.822 271.348C159.989 261.012 165.916 250.858 172.847 241.247C180.007 231.391 188.073 222.038 196.928 213.361C214.739 196.088 235.843 181.883 258.478 171.121C245.375 177.874 234.394 185.424 225.411 192.609ZM768.882 436.773C768.737 435.419 768.599 434.119 768.464 432.857C768.16 430.34 767.808 427.996 767.426 425.703C765.876 417.269 763.69 409.533 760.725 396.725C761.215 395.32 761.473 392.988 761.587 390.168C761.718 386.392 761.621 381.769 761.555 377.402C761.521 373.029 761.236 368.951 761.46 366.219L761.086 371.67C759.872 368.531 758.597 366.301 757.391 363.182C756.779 361.625 756.213 359.84 755.626 357.612C754.992 355.396 754.374 352.73 753.778 349.383C751.367 335.909 757.834 355.923 756.72 346.46C752.171 325.097 747.217 313.159 741.801 302.448C740.43 299.78 739.081 297.152 737.694 294.454C736.207 291.803 734.68 289.08 733.048 286.177C729.942 280.314 726.084 273.867 721.633 265.628C707.797 234.825 688.798 213.792 667.074 196.396C656.161 187.656 644.26 180.009 631.277 172.394C618.27 164.773 603.86 157.63 587.347 150.355C609.891 161.961 632.705 176.888 658.431 201.448L652.542 197.001C650.588 195.521 648.481 194.227 646.464 192.84L640.372 188.758L634.557 185.314C616.05 171.817 595.489 160.924 572.897 152.646C573.587 152.854 574.286 153.074 574.97 153.265C577.834 154.146 580.678 154.802 583.255 155.756C588.439 157.584 593.232 158.975 596.951 160.674C594.594 158.804 591.633 157.11 588.475 155.198C585.311 153.303 581.895 151.309 578.307 149.602C574.736 147.863 571.168 145.924 567.637 144.392C564.113 142.835 560.742 141.325 557.733 139.909C545.617 134.707 539.146 130.954 552.908 130.945C548.797 129.729 545.12 128.541 541.729 127.769C538.336 126.994 535.278 126.351 532.47 125.805C526.865 124.614 522.199 124.353 517.891 123.954C515.731 123.8 513.657 123.63 511.566 123.577C509.478 123.558 507.379 123.543 505.181 123.524C500.793 123.507 496.033 123.347 490.178 123.427C487.257 123.035 483.758 122.709 480.113 122.397C476.467 122.222 472.68 122.039 469.173 121.868C462.156 121.394 456.279 121.214 454.896 120.015C444.093 121.065 439.213 122.119 432.876 122.397C429.706 122.521 426.186 122.563 421.412 122.645C416.642 122.728 410.569 122.492 402.386 122.732C380.009 125.28 359.287 131.291 374.481 130.598C394.966 127.6 415.54 125.782 436.265 124.977C451.049 126.808 443.947 128.958 434.454 130.941C432.076 131.422 429.548 131.932 427.149 132.417C424.759 132.965 422.508 133.493 420.69 133.978C420.2 134.109 419.75 134.237 419.33 134.36C416.315 134.56 413.284 134.785 410.229 135.036C362.691 138.957 322.486 147.629 288.577 160.189C295.678 156.766 302.9 153.539 310.238 150.511C296.354 154.707 282.639 159.516 269.304 165.311C272.22 162.198 278.5 157.268 279.979 154.627C281.482 152.093 277.926 151.333 261.141 157.776C248.369 164.843 236.487 172.951 225.255 181.554C214.049 190.208 203.476 199.45 193.728 209.562C174.147 229.711 157.252 252.461 142.029 278.607L138.739 285.461L135.749 292.458C133.659 297.095 132.069 301.922 130.214 306.668C126.961 316.302 123.858 326.05 121.559 336.015C116.584 355.888 113.927 376.327 112.251 396.886C109.009 438.027 111.765 480.966 124.104 522.377C123.869 515.01 125.358 519.535 126.399 522.526C127.607 525.494 128.004 527.015 126.09 513.824C127.309 516.861 128.424 519.755 129.528 522.729C129.908 523.637 130.278 524.579 130.652 525.511C133.574 536.108 137.041 546.391 141.073 556.32C136.799 550.372 135.443 549.127 135.369 551.045C135.272 553.083 137.212 558.375 139.369 564.489C140.38 567.579 141.921 570.669 143.127 573.742C144.35 576.811 145.516 579.734 146.493 582.179C148.485 587.039 149.196 590.272 146.816 589.379C157.469 607.112 162.159 616.236 167.232 625.982C169.892 630.754 172.46 635.846 176.84 641.463C181.006 647.271 186.84 653.733 195.551 661.407C201.504 665.056 203.36 665.412 202.686 663.787C202.35 662.973 201.377 661.662 199.964 660.006C198.568 658.33 196.634 656.421 194.689 654.031C190.703 649.36 185.639 643.971 181.489 638.493C179.386 635.785 177.213 633.338 175.579 630.914C173.934 628.515 172.494 626.42 171.392 624.816C172.828 626.372 174.437 628.345 176.139 630.528C177.802 632.745 179.849 634.914 181.751 637.224C180.375 635.264 179.044 633.306 177.798 631.369C176.649 629.344 175.571 627.352 174.578 625.423C172.627 621.539 170.861 618.045 169.926 614.778C168.767 611.129 168.199 608.217 168.304 606.305C183.633 627.95 202.614 646.974 225.344 662.842C223.995 665.728 223.42 668.969 232.661 674.62C234.078 676.77 237.931 679.853 243.323 682.783C245.99 684.3 248.969 685.909 252.111 687.533C255.346 688.96 258.723 690.45 262.103 691.939C263.791 692.678 265.48 693.414 267.152 694.145C268.856 694.786 270.542 695.422 272.191 696.042C275.483 697.296 278.614 698.527 281.425 699.716C287.097 701.939 291.578 703.783 293.453 705.594C316.616 711.773 337.157 717.129 355.168 720.52C364.184 721.937 372.489 723.332 380.07 723.319C387.64 723.486 394.432 722.997 400.355 721.013C406.107 722.246 411.888 723.781 417.723 724.767L435.34 727.912C442.461 728.127 449.009 727.836 455.122 727.522C456.649 727.427 458.152 727.353 459.626 727.214C461.098 727.026 462.545 726.841 463.974 726.658C466.825 726.272 469.587 725.857 472.279 725.421C474.963 724.957 477.584 724.504 480.166 724.057C482.73 723.519 485.238 722.87 487.72 722.272C492.68 721.022 497.547 719.877 502.438 718.55C506.646 716.261 501.128 716.558 497.421 715.923C495.571 715.656 494.192 715.293 494.713 714.555C494.973 714.185 495.708 713.721 497.093 713.131C498.481 712.56 500.518 711.835 503.341 710.764C507.527 709.579 513.186 708.047 518.854 706.776C524.468 705.253 530.079 703.92 534.323 703.556C536.95 704.508 526.342 708.422 523.995 709.527C546.136 703.446 564.792 698.072 582.425 692.781C600.072 687.55 616.428 681.63 632.713 673.315C637.699 669.852 643.024 666.379 648.181 662.337C650.806 660.381 653.466 658.397 656.151 656.397C658.739 654.266 661.351 652.115 663.976 649.954C674.556 641.397 684.493 631.635 693.611 621.988C711.568 602.374 724.371 581.65 729.171 568.174L721.542 580.023C718.898 583.899 716.07 587.646 713.342 591.45C716.205 587.191 718.25 583.913 719.688 581.372C721.081 578.8 721.766 576.899 722.167 575.552C722.931 572.834 722.247 572.121 721.696 571.305C720.46 569.583 720.486 567.965 731.369 548.324C735.411 540.943 738.224 536.399 739.883 533.589C741.644 530.824 742.669 529.979 743.349 530.07C744.715 530.242 744.681 534.198 746.503 533.72C747.433 531.49 748.397 529.06 749.38 526.489C750.319 523.902 751.111 521.112 751.998 518.271C752.832 515.415 753.81 512.519 754.542 509.522C755.26 506.525 755.983 503.501 756.701 500.51C757.064 499.018 757.423 497.532 757.78 496.061C758.065 494.573 758.348 493.101 758.628 491.651C759.222 488.758 759.802 485.952 760.349 483.288C761.431 477.958 762.216 473.157 763.316 469.439C761.979 480.403 763.405 476.329 764.993 470.703C765.848 467.903 766.52 464.688 766.927 462.825C767.362 460.966 767.58 460.469 767.35 463.089C767.977 458.563 768.557 454.542 768.798 450.898C768.959 447.246 769.016 443.993 768.99 441.026C768.973 439.54 768.954 438.128 768.882 436.773Z" fill="#FFDDD4"/>
<mask id="mask0_0_692" style="mask-type:alpha" maskUnits="userSpaceOnUse" x="111" y="120" width="658" height="608">
<path fill-rule="evenodd" clip-rule="evenodd" d="M756.527 404.33C756.418 407.812 756.134 412.417 756.352 418.504C756.384 420.029 756.525 421.64 756.54 423.362C756.565 425.082 756.589 426.905 756.616 428.837C756.694 432.701 757.004 437 756.918 441.797C756.379 435.936 755.307 439.222 754.808 434.578C754.853 435.54 754.893 436.515 754.889 437.504C754.827 439.766 754.718 442.084 754.574 444.407C754.424 446.729 754.27 449.06 754.031 451.341C753.668 453.609 753.311 455.841 752.965 457.992C752.329 461.814 751.63 465.314 750.786 468.28C754.164 443.648 753.808 418.957 749.586 395.145C738.234 331.131 717.378 278.514 687.065 237.67C692.367 243.873 697.399 250.337 702.098 257.06C703.538 256.999 700.419 250.598 698.142 245.93C695.733 241.363 694.373 238.378 700.242 244.866C705.096 251.633 703.61 251.747 704.076 253.456L707.647 258.546L710.977 263.786C713.186 267.291 715.494 270.756 717.477 274.394L716.068 283.109C722.555 302.537 729.638 316.903 737.123 333.197C744.504 349.442 751.987 367.731 755.959 394.011C756.654 395.357 757.266 396.323 757.809 396.997C757.22 398.692 756.736 401.016 756.527 404.33ZM674.501 222.048C669.213 215.97 663.668 210.212 657.89 204.749C658.496 205.189 659.084 205.617 659.698 206.062C661.499 207.428 663.208 208.972 664.986 210.561C666.749 212.163 668.52 213.875 670.279 215.738C671.943 217.69 673.578 219.808 675.18 222.114C675.349 222.497 675.029 222.379 674.501 222.048ZM490.336 134.88C491.086 133.276 491.462 131.679 497.678 131.135C509.187 132.802 531.794 138.126 528.305 139.686C529.663 140.175 531.04 140.634 532.425 141.083C518.993 138.238 504.953 136.177 490.336 134.88ZM353.348 711.247C346.204 710.732 340.091 710.441 336.471 710.726C331.636 708.916 330.103 707.733 330.189 706.882C338.011 708.568 346.037 710.051 354.313 711.282C353.998 711.272 353.658 711.259 353.348 711.247ZM225.411 192.609C194.045 214.387 171.155 241.164 154.822 271.348C159.989 261.012 165.916 250.858 172.847 241.247C180.007 231.391 188.073 222.038 196.928 213.361C214.739 196.088 235.843 181.883 258.478 171.121C245.375 177.874 234.394 185.424 225.411 192.609ZM768.882 436.773C768.737 435.419 768.599 434.119 768.464 432.857C768.16 430.34 767.808 427.996 767.426 425.703C765.876 417.269 763.69 409.533 760.725 396.725C761.215 395.32 761.473 392.988 761.587 390.168C761.718 386.392 761.621 381.769 761.555 377.402C761.521 373.029 761.236 368.951 761.46 366.219L761.086 371.67C759.872 368.531 758.597 366.301 757.391 363.182C756.779 361.625 756.213 359.84 755.626 357.612C754.992 355.396 754.374 352.73 753.778 349.383C751.367 335.909 757.834 355.923 756.72 346.46C752.171 325.097 747.217 313.159 741.801 302.448C740.43 299.78 739.081 297.152 737.694 294.454C736.207 291.803 734.68 289.08 733.048 286.177C729.942 280.314 726.084 273.867 721.633 265.628C707.797 234.825 688.798 213.792 667.074 196.396C656.161 187.656 644.26 180.009 631.277 172.394C618.27 164.773 603.86 157.63 587.347 150.355C609.891 161.961 632.705 176.888 658.431 201.448L652.542 197.001C650.588 195.521 648.481 194.227 646.464 192.84L640.372 188.758L634.557 185.314C616.05 171.817 595.489 160.924 572.897 152.646C573.587 152.854 574.286 153.074 574.97 153.265C577.834 154.146 580.678 154.802 583.255 155.756C588.439 157.584 593.232 158.975 596.951 160.674C594.594 158.804 591.633 157.11 588.475 155.198C585.311 153.303 581.895 151.309 578.307 149.602C574.736 147.863 571.168 145.924 567.637 144.392C564.113 142.835 560.742 141.325 557.733 139.909C545.617 134.707 539.146 130.954 552.908 130.945C548.797 129.729 545.12 128.541 541.729 127.769C538.336 126.994 535.278 126.351 532.47 125.805C526.865 124.614 522.199 124.353 517.891 123.954C515.731 123.8 513.657 123.63 511.566 123.577C509.478 123.558 507.379 123.543 505.181 123.524C500.793 123.507 496.033 123.347 490.178 123.427C487.257 123.035 483.758 122.709 480.113 122.397C476.467 122.222 472.68 122.039 469.173 121.868C462.156 121.394 456.279 121.214 454.896 120.015C444.093 121.065 439.213 122.119 432.876 122.397C429.706 122.521 426.186 122.563 421.412 122.645C416.642 122.728 410.569 122.492 402.386 122.732C380.009 125.28 359.287 131.291 374.481 130.598C394.966 127.6 415.54 125.782 436.265 124.977C451.049 126.808 443.947 128.958 434.454 130.941C432.076 131.422 429.548 131.932 427.149 132.417C424.759 132.965 422.508 133.493 420.69 133.978C420.2 134.109 419.75 134.237 419.33 134.36C416.315 134.56 413.284 134.785 410.229 135.036C362.691 138.957 322.486 147.629 288.577 160.189C295.678 156.766 302.9 153.539 310.238 150.511C296.354 154.707 282.639 159.516 269.304 165.311C272.22 162.198 278.5 157.268 279.979 154.627C281.482 152.093 277.926 151.333 261.141 157.776C248.369 164.843 236.487 172.951 225.255 181.554C214.049 190.208 203.476 199.45 193.728 209.562C174.147 229.711 157.252 252.461 142.029 278.607L138.739 285.461L135.749 292.458C133.659 297.095 132.069 301.922 130.214 306.668C126.961 316.302 123.858 326.05 121.559 336.015C116.584 355.888 113.927 376.327 112.251 396.886C109.009 438.027 111.765 480.966 124.104 522.377C123.869 515.01 125.358 519.535 126.399 522.526C127.607 525.494 128.004 527.015 126.09 513.824C127.309 516.861 128.424 519.755 129.528 522.729C129.908 523.637 130.278 524.579 130.652 525.511C133.574 536.108 137.041 546.391 141.073 556.32C136.799 550.372 135.443 549.127 135.369 551.045C135.272 553.083 137.212 558.375 139.369 564.489C140.38 567.579 141.921 570.669 143.127 573.742C144.35 576.811 145.516 579.734 146.493 582.179C148.485 587.039 149.196 590.272 146.816 589.379C157.469 607.112 162.159 616.236 167.232 625.982C169.892 630.754 172.46 635.846 176.84 641.463C181.006 647.271 186.84 653.733 195.551 661.407C201.504 665.056 203.36 665.412 202.686 663.787C202.35 662.973 201.377 661.662 199.964 660.006C198.568 658.33 196.634 656.421 194.689 654.031C190.703 649.36 185.639 643.971 181.489 638.493C179.386 635.785 177.213 633.338 175.579 630.914C173.934 628.515 172.494 626.42 171.392 624.816C172.828 626.372 174.437 628.345 176.139 630.528C177.802 632.745 179.849 634.914 181.751 637.224C180.375 635.264 179.044 633.306 177.798 631.369C176.649 629.344 175.571 627.352 174.578 625.423C172.627 621.539 170.861 618.045 169.926 614.778C168.767 611.129 168.199 608.217 168.304 606.305C183.633 627.95 202.614 646.974 225.344 662.842C223.995 665.728 223.42 668.969 232.661 674.62C234.078 676.77 237.931 679.853 243.323 682.783C245.99 684.3 248.969 685.909 252.111 687.533C255.346 688.96 258.723 690.45 262.103 691.939C263.791 692.678 265.48 693.414 267.152 694.145C268.856 694.786 270.542 695.422 272.191 696.042C275.483 697.296 278.614 698.527 281.425 699.716C287.097 701.939 291.578 703.783 293.453 705.594C316.616 711.773 337.157 717.129 355.168 720.52C364.184 721.937 372.489 723.332 380.07 723.319C387.64 723.486 394.432 722.997 400.355 721.013C406.107 722.246 411.888 723.781 417.723 724.767L435.34 727.912C442.461 728.127 449.009 727.836 455.122 727.522C456.649 727.427 458.152 727.353 459.626 727.214C461.098 727.026 462.545 726.841 463.974 726.658C466.825 726.272 469.587 725.857 472.279 725.421C474.963 724.957 477.584 724.504 480.166 724.057C482.73 723.519 485.238 722.87 487.72 722.272C492.68 721.022 497.547 719.877 502.438 718.55C506.646 716.261 501.128 716.558 497.421 715.923C495.571 715.656 494.192 715.293 494.713 714.555C494.973 714.185 495.708 713.721 497.093 713.131C498.481 712.56 500.518 711.835 503.341 710.764C507.527 709.579 513.186 708.047 518.854 706.776C524.468 705.253 530.079 703.92 534.323 703.556C536.95 704.508 526.342 708.422 523.995 709.527C546.136 703.446 564.792 698.072 582.425 692.781C600.072 687.55 616.428 681.63 632.713 673.315C637.699 669.852 643.024 666.379 648.181 662.337C650.806 660.381 653.466 658.397 656.151 656.397C658.739 654.266 661.351 652.115 663.976 649.954C674.556 641.397 684.493 631.635 693.611 621.988C711.568 602.374 724.371 581.65 729.171 568.174L721.542 580.023C718.898 583.899 716.07 587.646 713.342 591.45C716.205 587.191 718.25 583.913 719.688 581.372C721.081 578.8 721.766 576.899 722.167 575.552C722.931 572.834 722.247 572.121 721.696 571.305C720.46 569.583 720.486 567.965 731.369 548.324C735.411 540.943 738.224 536.399 739.883 533.589C741.644 530.824 742.669 529.979 743.349 530.07C744.715 530.242 744.681 534.198 746.503 533.72C747.433 531.49 748.397 529.06 749.38 526.489C750.319 523.902 751.111 521.112 751.998 518.271C752.832 515.415 753.81 512.519 754.542 509.522C755.26 506.525 755.983 503.501 756.701 500.51C757.064 499.018 757.423 497.532 757.78 496.061C758.065 494.573 758.348 493.101 758.628 491.651C759.222 488.758 759.802 485.952 760.349 483.288C761.431 477.958 762.216 473.157 763.316 469.439C761.979 480.403 763.405 476.329 764.993 470.703C765.848 467.903 766.52 464.688 766.927 462.825C767.362 460.966 767.58 460.469 767.35 463.089C767.977 458.563 768.557 454.542 768.798 450.898C768.959 447.246 769.016 443.993 768.99 441.026C768.973 439.54 768.954 438.128 768.882 436.773Z" fill="white"/>
</mask>
<g mask="url(#mask0_0_692)">
<rect width="898" height="881" transform="translate(0.96228 5.80298)" fill="white"/>
<rect x="0.96228" y="5.80298" width="898" height="881" rx="80" fill="#FFDFD6"/>
</g>
<path fill-rule="evenodd" clip-rule="evenodd" d="M458.681 304.689C450.12 304.689 443.114 297.687 443.114 289.126C443.114 280.568 450.12 273.564 458.681 273.564C467.245 273.564 474.249 280.568 474.249 289.126C474.249 297.687 467.245 304.689 458.681 304.689Z" fill="white"/>
<path fill-rule="evenodd" clip-rule="evenodd" d="M508.498 304.689C499.935 304.689 492.931 297.687 492.931 289.126C492.931 280.568 499.935 273.564 508.498 273.564C517.06 273.564 524.066 280.568 524.066 289.126C524.066 297.687 517.06 304.689 508.498 304.689Z" fill="white"/>
<path fill-rule="evenodd" clip-rule="evenodd" d="M562.467 304.689C553.904 304.689 546.899 297.687 546.899 289.126C546.899 280.568 553.904 273.564 562.467 273.564C571.03 273.564 578.035 280.568 578.035 289.126C578.035 297.687 571.03 304.689 562.467 304.689Z" fill="white"/>
<path fill-rule="evenodd" clip-rule="evenodd" d="M344.517 605.562C335.954 605.562 328.95 598.56 328.95 590C328.95 581.441 335.954 574.437 344.517 574.437C353.079 574.437 360.085 581.441 360.085 590C360.085 598.56 353.079 605.562 344.517 605.562Z" fill="white"/>
<path fill-rule="evenodd" clip-rule="evenodd" d="M398.486 605.562C389.922 605.562 382.918 598.56 382.918 590C382.918 581.441 389.922 574.437 398.486 574.437C407.047 574.437 414.054 581.441 414.054 590C414.054 598.56 407.047 605.562 398.486 605.562Z" fill="white"/>
<path fill-rule="evenodd" clip-rule="evenodd" d="M448.303 605.562C439.741 605.562 432.735 598.56 432.735 590C432.735 581.441 439.741 574.437 448.303 574.437C456.866 574.437 463.871 581.441 463.871 590C463.871 598.56 456.866 605.562 448.303 605.562Z" fill="white"/>
<path fill-rule="evenodd" clip-rule="evenodd" d="M361.106 513.388H109.216C88.6632 513.388 72 496.775 72 476.278V265.11C72 244.614 88.6632 228 109.216 228H361.106C381.659 228 398.322 244.614 398.322 265.11V476.278C398.322 496.775 381.659 513.388 361.106 513.388Z" fill="white"/>
<path fill-rule="evenodd" clip-rule="evenodd" d="M792.686 666.001H535.816C516.638 666.001 501.09 650.497 501.09 631.374V415.239C501.09 396.116 516.638 380.613 535.816 380.613H792.686C811.864 380.613 827.412 396.116 827.412 415.239V631.374C827.412 650.497 811.864 666.001 792.686 666.001Z" fill="white"/>
<path fill-rule="evenodd" clip-rule="evenodd" d="M803 560.827C798.938 556.098 777.03 523.854 750.288 488.713C731.678 464.259 704.714 457.738 691.139 456C691.228 459.542 691.241 461.883 691.241 461.883C691.241 461.883 687.885 477.577 663.367 476.82C632.746 475.876 637.027 464.12 637.027 464.12C637.027 464.12 638.221 460.761 639.208 457.36C632.416 459.88 617.049 467.016 598.102 484.977C588.965 493.639 561 531.098 561 531.098C561 531.098 562.691 535.312 565.53 541.256H594.301C597.148 541.256 599.76 542.83 601.086 545.345L648.524 635.42H587.255L583.164 667H755.146L736.752 602.402C736.752 602.402 790.364 576.268 803 560.827Z" fill="#FC77A0"/>
<mask id="mask1_0_692" style="mask-type:alpha" maskUnits="userSpaceOnUse" x="561" y="456" width="242" height="212">
<path fill-rule="evenodd" clip-rule="evenodd" d="M803 560.827C798.938 556.098 777.03 523.854 750.288 488.713C731.678 464.259 704.714 457.738 691.139 456C691.228 459.542 691.241 461.883 691.241 461.883C691.241 461.883 687.885 477.577 663.367 476.82C632.746 475.876 637.027 464.12 637.027 464.12C637.027 464.12 638.221 460.761 639.208 457.36C632.416 459.88 617.049 467.016 598.102 484.977C588.965 493.639 561 531.098 561 531.098C561 531.098 562.691 535.312 565.53 541.256H594.301C597.148 541.256 599.76 542.83 601.086 545.345L648.524 635.42H587.255L583.164 667H755.146L736.752 602.402C736.752 602.402 790.364 576.268 803 560.827Z" fill="white"/>
</mask>
<g mask="url(#mask1_0_692)">
<rect x="4.30157" y="-0.999756" width="896" height="901" rx="80" fill="#FC77A0"/>
</g>
<path fill-rule="evenodd" clip-rule="evenodd" d="M519.187 448.831C519.187 448.831 518.687 455.826 517.686 467.82C516.685 479.813 515.686 481.811 518.186 484.809C520.689 487.809 530.693 500.801 542.698 516.792C554.704 532.781 559.204 536.781 559.204 536.781L562.16 533.727L582.809 581.917L597.722 614.236C597.722 614.236 576.165 623.85 559.204 617.234C535.11 607.834 519.688 561.266 510.683 545.775C501.678 530.283 494.177 515.292 494.177 515.292C494.177 515.292 478.67 505.796 468.664 492.805C458.661 479.813 457.662 476.316 458.16 473.316C458.661 470.318 460.316 470.799 460.316 470.799C460.316 470.799 453.12 462.886 455.473 458.185C457.028 455.075 460.66 456.976 460.66 456.976C460.66 456.976 458.413 450.065 462.046 447.99C465.086 446.256 468.099 449.028 468.099 449.028C468.099 449.028 465.624 445.136 469.95 443.235C474.274 441.335 491.276 454.729 495.947 458.876C500.617 463.023 503.558 466.48 503.558 466.48C503.558 466.48 509.219 444.314 519.187 448.831Z" fill="#784A4A"/>
<path fill-rule="evenodd" clip-rule="evenodd" d="M696.744 395.355C692.241 394.859 688.15 397.338 688.15 397.338C688.15 397.338 689.238 382.882 682.107 368.723C674.975 354.563 640.904 350.713 628.512 364.963C628.512 364.963 622.219 392.434 622.871 411.002C623.515 429.271 634.47 436.306 641.245 438.215C641.012 442.358 640.671 447.308 640.221 451.372C639.814 455.034 636.802 463.511 636.802 463.511C636.802 463.511 632.524 475.272 663.127 476.218C687.629 476.974 690.985 461.271 690.985 461.271C690.985 461.271 690.935 451.75 690.306 442.016C689.994 437.186 689.743 427.835 689.573 419.643C693.803 419.991 699.72 419.342 703.657 414.103C710.361 405.187 702.592 396 696.744 395.355Z" fill="#8A5F5F"/>
<path fill-rule="evenodd" clip-rule="evenodd" d="M793.733 568.548C793.733 568.548 801.386 579.536 805.992 607.274C810.599 635.014 792.83 650.761 760.403 656.109C738.733 659.684 656.508 656.526 656.508 656.526C656.508 656.526 626.079 664.42 610.676 659.63C595.273 654.839 577.274 641.003 577.274 641.003L661.033 642.887L668.397 634.908L740.02 612.68L735.428 602.679C735.428 602.679 750.873 594.998 764.908 586.751C780.652 577.503 793.733 568.548 793.733 568.548Z" fill="#784A4A"/>
<path fill-rule="evenodd" clip-rule="evenodd" d="M521.347 643.114H706.755C707.518 643.114 708.134 642.498 708.134 641.737V636.565C708.134 635.803 707.518 635.187 706.755 635.187H521.347C520.585 635.187 519.968 635.803 519.968 636.565V641.737C519.968 642.498 520.585 643.114 521.347 643.114Z" fill="white"/>
<path fill-rule="evenodd" clip-rule="evenodd" d="M477.134 540.689H594.101C596.946 540.689 599.559 542.265 600.882 544.782L648.292 634.909H519.967L473.535 546.639C472.113 543.936 474.075 540.689 477.134 540.689Z" fill="white"/>
<path fill-rule="evenodd" clip-rule="evenodd" d="M551.031 594.524C555.488 598.441 561.446 598.951 564.339 595.665C567.234 592.379 565.967 586.539 561.511 582.624C557.054 578.707 551.098 578.197 548.203 581.483C545.31 584.769 546.575 590.607 551.031 594.524Z" fill="white"/>
<path fill-rule="evenodd" clip-rule="evenodd" d="M100 437.219C100 437.219 122.578 374.065 147.574 345.322C172.57 316.58 202.469 316 202.469 316L268.954 328.4C268.954 328.4 283.85 344.58 297.961 351.463C312.071 358.343 315.317 357.352 321.768 357.352C328.219 357.352 327.956 358.462 327.956 358.462C327.956 358.462 336.181 371.057 340.734 381.89C348.232 399.741 353 422.059 353 422.059L310.856 424.67L320.402 512.959L294.458 513H149.824L158.056 453.008C158.056 453.008 129.431 457.055 100 437.219Z" fill="#FFCB57"/>
<mask id="mask2_0_692" style="mask-type:alpha" maskUnits="userSpaceOnUse" x="100" y="316" width="253" height="198">
<path fill-rule="evenodd" clip-rule="evenodd" d="M100 437.219C100 437.219 122.578 374.065 147.574 345.322C172.57 316.58 202.469 316 202.469 316L268.954 328.4C268.954 328.4 283.85 344.58 297.961 351.463C312.071 358.343 315.317 357.352 321.768 357.352C328.219 357.352 327.956 358.462 327.956 358.462C327.956 358.462 336.181 371.057 340.734 381.89C348.232 399.741 353 422.059 353 422.059L310.856 424.67L320.402 512.959L294.458 513H149.824L158.056 453.008C158.056 453.008 129.431 457.055 100 437.219Z" fill="white"/>
</mask>
<g mask="url(#mask2_0_692)">
<rect x="4.30157" y="1.50024" width="855" height="832" rx="80" fill="#FFCB57"/>
</g>
<path fill-rule="evenodd" clip-rule="evenodd" d="M299.241 236.638C290.653 219.17 259.632 223.478 248.772 235.706C237.911 247.931 233.207 249.948 233.207 249.948C233.207 249.948 230.505 246.507 225.161 245.705C218.498 244.706 208.978 251.91 213.304 262.561C215.655 268.351 220.737 270.672 224.902 271.597H224.899C224.899 271.597 222.044 296.309 219.697 306.085C217.35 315.862 201.983 316.36 201.983 316.36C201.983 316.36 209.846 341.727 234.896 345.244C266.182 349.633 268.685 328.722 268.685 328.722C268.685 328.722 261.817 326.556 263.36 317.626C264.114 313.255 264.835 309.042 265.375 305.871C266.218 305.95 267.049 306.004 267.854 306.008C277.493 306.062 289.135 299.111 294.701 280.786C300.269 262.461 299.241 236.638 299.241 236.638Z" fill="#916565"/>
<path fill-rule="evenodd" clip-rule="evenodd" d="M197.937 383.338L228.283 428.335L239.064 423.761L208.733 377.46C208.733 377.46 205.561 373.353 200.903 375.8C194.585 379.12 197.937 383.338 197.937 383.338Z" fill="white"/>
<path fill-rule="evenodd" clip-rule="evenodd" d="M104.093 441.896C104.093 441.896 90.0926 467.446 96.8364 493.95C103.58 520.457 123.672 523.417 131.504 523.346C139.336 523.276 163.703 512.014 186.915 480.539C210.128 449.065 212.916 447.533 212.916 447.533L241.907 439.169L247.494 421.3C247.494 421.3 232.526 415.016 221.149 412.502C209.773 409.989 204.915 413.259 194.726 422.78C184.537 432.303 150.955 455.479 150.955 455.479L149.441 454.818C149.441 454.818 137.629 454.499 117.863 448.518C111.005 446.441 104.093 441.896 104.093 441.896Z" fill="#784A4A"/>
<path fill-rule="evenodd" clip-rule="evenodd" d="M378.903 417.522L373.923 417.866L367.293 405.84C367.293 405.84 357.712 406.476 333.979 407.56C311.897 408.569 308.103 420.295 308.103 420.295C308.103 420.295 298.819 408.886 274.816 408.706C260.728 408.6 242.676 408.499 242.676 408.499L237.681 420.592L237.375 420.585C236.316 420.556 235.365 421.014 235.03 421.711L204.288 485.698C203.92 486.463 204.761 487.263 205.92 487.252L274.062 486.589C274.062 486.589 275.543 489.621 283.329 489.816C291.116 490.011 293.562 485.147 293.562 485.147L345.969 480.442C346.879 480.341 347.635 479.906 347.957 479.302L380.548 418.954C380.949 418.204 380.041 417.415 378.903 417.522Z" fill="white"/>
<path fill-rule="evenodd" clip-rule="evenodd" d="M606.412 634.719C607.532 631.6 613.848 631.973 621.495 633.735C626.922 634.987 633.113 635.289 638.677 636.584C652.705 639.853 661.588 645.45 661.588 645.45L644.746 653.054C644.746 653.054 603.469 642.924 606.412 634.719Z" fill="white"/>
<path fill-rule="evenodd" clip-rule="evenodd" d="M371.12 442.205C366.125 439.355 345.692 437.322 339.336 436.711C332.979 436.099 332.159 435.938 331.164 437.525C329.12 440.781 332.298 444.035 332.298 444.035C332.298 444.035 328.21 443.832 328.439 447.699C328.582 450.147 332.979 453.802 332.979 453.802C332.979 453.802 328.665 454.82 332.298 460.314C333.477 462.1 343.162 467.452 351.879 472.04L347.958 479.302C347.636 479.905 346.88 480.34 345.968 480.444L317.07 483.037L320.297 512.716L295.937 512.756L295.864 514.167H352.195C354.521 511.096 356.762 507.767 359.046 504.281C364.978 495.229 369.703 485.478 372.202 479.967C375.147 478.931 377.575 475.337 377.703 466.623C377.93 451.361 376.115 445.054 371.12 442.205Z" fill="#784A4A"/>
<mask id="mask3_0_692" style="mask-type:alpha" maskUnits="userSpaceOnUse" x="71" y="189" width="759" height="479">
<path fill-rule="evenodd" clip-rule="evenodd" d="M500.03 540.118H502.927V531.419C501.89 529.514 500.923 527.714 500.03 526.037V540.118Z" fill="#393F49"/>
<path fill-rule="evenodd" clip-rule="evenodd" d="M654.007 393.245C653.722 395.234 654.733 397.023 656.264 397.241C657.794 397.459 659.265 396.024 659.549 394.033C659.834 392.045 658.822 390.255 657.292 390.038C655.761 389.82 654.291 391.257 654.007 393.245Z" fill="#393F49"/>
<path fill-rule="evenodd" clip-rule="evenodd" d="M397.276 476.174C397.276 495.758 381.319 511.691 361.703 511.691H355.658C357.492 509.14 359.263 506.542 360.904 504.037C366.677 495.223 371.335 485.697 373.918 480.047C376.805 478.724 379.654 475.025 379.795 465.591C380.028 449.826 378.115 443.1 372.481 439.886C372.147 439.693 371.727 439.503 371.266 439.316L382.468 418.561C382.862 417.822 382.819 416.964 382.349 416.263C381.764 415.386 380.617 414.893 379.446 415.005L375.386 415.284L369.206 404.063C368.938 403.571 368.438 403.283 367.842 403.316C367.771 403.32 362.468 403.669 350.388 404.276C348.639 398.626 346.394 391.757 343.541 383.807C338.705 370.327 333.06 361.785 330.149 357.916C333.893 356.796 336.719 354.455 337.644 350.184C340.815 335.547 336.059 330.799 328.531 324.864C321.004 318.93 316.645 313.788 325.757 308.644C334.871 303.501 334.475 289.259 327.738 284.51C321.004 279.762 313.079 272.246 315.455 264.73C317.832 257.211 325.267 251.992 320.21 232.684C319.845 231.286 319.353 230.034 318.809 228.85H361.703C381.319 228.85 397.276 244.783 397.276 264.367V476.174ZM231.351 412.539C228.261 411.565 225.086 410.667 222.127 410.012C220.897 409.74 219.78 409.578 218.678 409.439L199.807 381.437L199.747 381.358C199.739 381.348 198.947 380.286 199.224 379.048C199.467 377.956 200.511 376.896 202.245 375.984C203.084 375.542 203.859 375.374 204.55 375.374C206.689 375.374 208.049 376.987 208.188 377.153L231.351 412.539ZM334.562 405.035C319.326 405.732 312.394 411.393 309.416 415.23C302.632 372.728 292.188 355.025 291.729 354.27C291.316 353.588 290.425 353.373 289.74 353.785C289.059 354.2 288.841 355.087 289.252 355.772C289.362 355.95 299.77 373.664 306.475 415.197C301.813 411.641 292.08 406.306 275.486 406.18C261.396 406.074 243.348 405.97 243.348 405.97H243.34C242.752 405.97 242.222 406.323 242 406.866L238.636 415.013C237.695 414.675 236.767 414.339 235.762 413.993L210.548 375.48C209.194 373.726 205.437 371.041 200.897 373.425C198.324 374.777 196.806 376.477 196.385 378.478C195.882 380.861 197.139 382.704 197.427 383.088L215.043 409.226C207.524 409.319 202.434 413.143 194.406 420.653C191.806 423.081 186.218 427.437 179.377 432.552C182.561 423.491 189.256 403.571 191.648 389.83C191.785 389.045 191.258 388.296 190.469 388.159C189.682 388.031 188.932 388.551 188.795 389.337C185.939 405.722 176.829 431.163 175.195 435.658C168.606 440.525 161.265 445.825 154.431 450.712C146.197 451.041 124.166 450.293 101.62 435.569C103.651 430.081 113.399 404.361 126.288 379.921C126.398 379.714 126.506 379.509 126.616 379.303C127.671 377.313 128.747 375.333 129.841 373.373C130.08 372.948 130.319 372.523 130.556 372.104C131.459 370.506 132.375 368.928 133.301 367.369C133.691 366.711 134.082 366.054 134.47 365.413C134.975 364.582 135.481 363.752 135.992 362.938C136.771 361.693 137.548 360.478 138.318 359.307C138.706 358.716 139.097 358.139 139.489 357.559C140.191 356.52 140.889 355.506 141.585 354.528C141.821 354.192 142.06 353.843 142.297 353.512C143.225 352.232 144.143 351.021 145.055 349.85C145.31 349.52 145.566 349.199 145.823 348.875C146.78 347.675 147.734 346.509 148.676 345.431C150.091 343.816 151.521 342.3 152.963 340.861C153.444 340.382 153.928 339.955 154.41 339.495C155.376 338.572 156.339 337.652 157.309 336.801C157.89 336.295 158.47 335.835 159.051 335.352C159.928 334.624 160.804 333.894 161.68 333.223C162.299 332.748 162.914 332.31 163.531 331.862C164.365 331.257 165.198 330.656 166.027 330.098C166.662 329.669 167.293 329.268 167.925 328.868C168.724 328.358 169.524 327.861 170.315 327.392C170.954 327.015 171.59 326.656 172.221 326.305C172.983 325.882 173.739 325.474 174.489 325.086C175.131 324.757 175.768 324.433 176.399 324.126C177.11 323.784 177.807 323.461 178.503 323.148C179.145 322.859 179.786 322.571 180.414 322.306C181.055 322.038 181.682 321.789 182.305 321.545C182.951 321.294 183.601 321.037 184.228 320.809C184.774 320.612 185.3 320.438 185.831 320.257C186.496 320.031 187.165 319.799 187.8 319.604C188.201 319.48 188.575 319.376 188.963 319.262C189.684 319.052 190.41 318.835 191.087 318.658C191.189 318.632 191.278 318.613 191.378 318.586C195.12 317.62 198.152 317.137 200.164 316.898C200.227 316.892 200.306 316.879 200.366 316.873C200.686 316.836 200.931 316.815 201.194 316.788C201.348 316.776 201.525 316.757 201.655 316.747C203.524 321.68 212.666 342.377 235.355 345.564C238.289 345.977 241.109 346.184 243.738 346.184C243.892 346.184 244.041 346.184 244.193 346.182C244.993 346.176 245.634 345.52 245.628 344.724C245.62 343.928 244.974 343.291 244.179 343.291H244.168C241.523 343.298 238.719 343.117 235.76 342.7C215.677 339.88 206.957 322.15 204.671 316.521C209.137 316.007 219.708 313.887 221.768 305.291C221.923 304.648 222.079 303.937 222.237 303.18C222.251 303.107 222.268 303.025 222.283 302.952C224.179 293.733 226.203 277.32 226.818 272.182C229.663 272.623 231.821 272.478 232.045 272.462C232.842 272.399 233.438 271.703 233.376 270.906C233.314 270.11 232.597 269.517 231.818 269.577C231.758 269.584 229.032 269.758 225.744 269.001C225.25 268.889 224.779 268.756 224.314 268.615C224.137 268.561 223.96 268.512 223.782 268.449C223.493 268.352 223.223 268.24 222.947 268.132C221.311 267.485 219.678 266.571 218.271 265.233C218.268 265.231 218.266 265.231 218.266 265.229C217.907 264.887 217.569 264.51 217.245 264.116C217.199 264.062 217.149 264.012 217.106 263.956C216.819 263.593 216.555 263.195 216.3 262.783C216.24 262.685 216.169 262.594 216.111 262.492C215.816 261.986 215.546 261.447 215.311 260.867C215.108 260.369 214.938 259.873 214.798 259.382C214.753 259.222 214.732 259.065 214.695 258.905C214.614 258.575 214.528 258.246 214.477 257.922C214.441 257.692 214.435 257.468 214.412 257.242C214.387 256.991 214.35 256.74 214.342 256.494C214.333 256.195 214.358 255.905 214.373 255.61C214.383 255.442 214.375 255.27 214.393 255.107C214.433 254.727 214.506 254.356 214.587 253.989C214.603 253.916 214.609 253.84 214.626 253.767C214.952 252.453 215.554 251.219 216.426 250.103C218.671 247.231 222.44 245.523 225.613 245.977C230.271 246.676 232.711 249.66 232.732 249.684L233.417 250.557L234.04 250.292C234.055 250.412 234.067 250.516 234.086 250.644C234.479 252.909 234.844 254.808 236.117 256.235C237.722 258.03 240.505 257.734 243.358 254.368C246.212 251.001 250.33 247.476 258.661 245.09C271.86 241.306 282.968 240.057 290.747 233.841C290.747 233.841 296.256 237.523 298.358 248.192C298.331 248.934 298.289 249.728 298.25 250.51C294.435 248.208 290.398 249.57 288.571 250.837C287.914 251.291 287.75 252.193 288.209 252.851C288.664 253.506 289.563 253.668 290.224 253.211C290.392 253.093 294.385 250.41 298.044 253.981C297.504 262.011 296.362 271.342 293.97 279.223C288.55 297.078 277.342 303.431 268.618 303.431H268.521C260.673 303.387 252.68 299.889 246.592 293.837C243.182 290.445 239.5 284.886 236.738 278.962C236.404 278.24 235.544 277.923 234.815 278.263C234.09 278.597 233.777 279.457 234.113 280.183C237.01 286.397 240.91 292.265 244.548 295.883C250.454 301.758 258.038 305.399 265.711 306.155C265.261 309.075 265.136 311.916 264.019 316.5C260.912 329.233 290.543 348.987 299.417 352.885C300.684 353.441 302.204 354.051 303.888 354.658C309.063 356.802 312.431 357.586 315.297 357.849C319.324 358.631 323.41 359.002 326.99 358.581C329.281 361.465 335.571 370.166 340.817 384.782C343.535 392.362 345.697 398.945 347.404 404.426C343.678 404.61 339.434 404.811 334.562 405.035ZM317.926 419.249L317.066 419.245L316.721 420.068C316.707 420.091 315.434 422.272 308.918 422.564C302.326 422.869 300.611 420.406 300.607 420.406L300.204 419.697L240.484 418.127L244.305 408.869C248.24 408.89 263.323 408.979 275.463 409.072C298.393 409.244 307.545 420.026 307.634 420.136C307.966 420.539 308.496 420.734 309.015 420.636C309.532 420.541 309.96 420.172 310.128 419.674C310.278 419.234 314.032 408.869 334.695 407.924C354.144 407.034 364.187 406.439 367.111 406.259L372.203 415.504L317.926 419.249ZM330.5 441.968C329.952 442.188 329.389 442.517 328.901 443.007C328.266 443.647 327.532 444.813 327.643 446.722C327.761 448.744 329.746 451.058 331.229 452.516C330.88 452.864 330.562 453.308 330.34 453.868C329.669 455.555 330.141 457.635 331.738 460.055C332.192 460.745 333.364 462.468 350.56 471.587L347.327 477.578C347.277 477.671 346.986 477.901 346.486 477.957L296.098 482.482L308.184 450.672C308.469 449.926 308.093 449.09 307.343 448.808C306.604 448.526 305.763 448.902 305.479 449.648L292.338 484.238C291.32 485.407 288.859 487.435 284.023 487.329C279.153 487.209 277.101 485.926 276.37 485.281L279.672 476.643C279.957 475.896 279.583 475.061 278.835 474.776C278.092 474.492 277.251 474.866 276.966 475.612L273.717 484.111L206.573 484.764C206.552 484.766 206.529 484.764 206.508 484.762L236.995 421.268C237.056 421.169 237.469 420.937 238.001 420.955L297.266 422.51L284.542 455.792C284.258 456.538 284.631 457.374 285.379 457.66C285.549 457.724 285.722 457.753 285.896 457.753C286.477 457.753 287.028 457.399 287.248 456.822L299.946 423.605C301.535 424.627 304.32 425.66 309.048 425.453C311.659 425.335 313.594 424.922 315.068 424.404L313.596 428.279C313.312 429.025 313.688 429.861 314.435 430.143C314.603 430.207 314.778 430.236 314.948 430.236C315.534 430.236 316.082 429.882 316.302 429.303L319.049 422.071L379.538 417.897L368.477 438.389C363.07 436.898 353.578 435.497 340.123 434.205L339.263 434.122C333.405 433.556 332.01 433.421 330.585 435.692C329.183 437.925 329.636 440.251 330.5 441.968ZM318.734 511.691H157.66C166.39 505.188 176.798 495.333 188.716 480.394L190.473 478.196C195.201 472.282 201.678 464.181 205.597 458.678C206.058 458.027 205.906 457.123 205.254 456.661C204.6 456.196 203.699 456.35 203.236 457.003C199.365 462.439 192.917 470.503 188.209 476.392L186.452 478.592C158.48 513.658 139.035 519.854 131.972 520.893C125.522 521.853 105.563 518.676 98.9224 492.557C95.4025 478.712 97.8384 464.847 100.503 455.653C100.725 454.884 100.283 454.083 99.5163 453.859C98.7417 453.64 97.9443 454.081 97.7221 454.846C94.9581 464.386 92.4371 478.795 96.1148 493.268C98.0876 501.027 101.192 506.886 104.791 511.307C87.3888 509.005 73.8969 494.168 73.8969 476.174V264.367C73.8969 244.783 89.8537 228.85 109.47 228.85H205.665C200.744 235.512 193.988 241.729 182.719 243.761C160.104 247.839 147.659 254.165 145.078 275.412C143.836 285.63 144.251 295.006 131.185 298.693C120.023 301.843 103.065 305.007 90.5639 317.98C75.172 333.957 74.9456 364.822 95.9466 379.857C105.686 386.83 113.172 388.835 118.441 389.014C106.699 413.024 98.6379 435.279 98.5029 435.654C98.2807 436.278 98.5091 436.973 99.0594 437.342C100.968 438.621 102.868 439.77 104.758 440.863C104.76 440.861 104.774 440.832 104.774 440.832C104.774 440.832 105.059 441.014 105.46 441.263C109.872 443.761 114.217 445.796 118.399 447.407C118.447 447.421 118.495 447.442 118.542 447.456C133.604 452.016 144.025 453.285 148.143 453.631C148.88 453.66 149.582 453.679 150.257 453.689C138.972 461.728 129.983 468.005 129.762 468.158C129.108 468.616 128.948 469.518 129.405 470.171C129.688 470.574 130.136 470.789 130.595 470.789C130.88 470.789 131.168 470.704 131.424 470.528C132.94 469.468 157.72 452.163 176.626 438.207C176.993 438.115 177.299 437.902 177.5 437.56C186.025 431.252 193.241 425.699 196.385 422.761C206.303 413.487 210.732 410.455 221.502 412.836C226.677 413.98 232.601 415.927 237.529 417.696L237.346 418.14C235.974 418.314 234.888 418.969 234.387 420.014L233.843 421.142L219.099 419.896C218.322 419.815 217.604 420.418 217.535 421.215C217.469 422.009 218.059 422.71 218.856 422.776L232.506 423.931L229.399 430.402C229.387 430.4 229.376 430.394 229.366 430.394H211.916C211.114 430.394 210.467 431.041 210.467 431.841C210.467 432.639 211.114 433.286 211.916 433.286H228.014L223.859 441.937C223.632 441.9 223.4 441.897 223.165 441.974C209.41 446.55 196.993 444.782 196.869 444.765C196.094 444.663 195.342 445.192 195.224 445.982C195.106 446.772 195.65 447.506 196.439 447.624C196.671 447.66 199.228 448.029 203.242 448.029C208.008 448.029 214.838 447.485 222.26 445.271L203.647 484.032C203.296 484.767 203.35 485.586 203.792 486.28C204.343 487.139 205.406 487.649 206.602 487.657L274.005 487C275.054 488.148 277.729 490.064 283.95 490.22C284.116 490.224 284.28 490.226 284.442 490.226C289.41 490.226 292.358 488.316 293.953 486.751C294.308 486.602 294.622 486.369 294.772 485.982L294.873 485.712C294.929 485.635 295.006 485.548 295.054 485.48L346.781 480.835C348.172 480.673 349.333 479.966 349.879 478.942L353.119 472.937C354.541 473.684 356.045 474.465 357.666 475.305C358.379 475.67 359.249 475.392 359.618 474.683C359.984 473.974 359.708 473.101 358.995 472.734C337.367 461.573 334.514 458.987 334.157 458.462C333.162 456.959 332.749 455.678 333.025 454.952C333.152 454.614 333.43 454.411 333.652 454.291L361.01 464.231C361.174 464.291 361.342 464.318 361.504 464.318C362.096 464.318 362.652 463.955 362.866 463.368C363.14 462.618 362.752 461.788 362 461.515L334.377 451.479C332.805 450.129 330.604 447.747 330.533 446.552C330.475 445.538 330.832 445.171 330.951 445.051C331.455 444.535 332.367 444.421 332.77 444.421L363.14 452.246C363.261 452.277 363.383 452.292 363.504 452.292C364.146 452.292 364.735 451.858 364.906 451.207C365.103 450.434 364.638 449.646 363.863 449.445L333.75 441.686C333.187 440.991 331.887 439.065 333.04 437.226C333.461 436.554 333.517 436.471 338.985 437L339.845 437.083C362.744 439.281 369.221 441.354 371.046 442.395C375.523 444.952 377.112 451.228 376.898 465.547C376.821 470.679 375.864 476.956 371.734 477.737C370.949 477.887 370.431 478.641 370.581 479.425C370.616 479.612 370.689 479.78 370.785 479.931C368.164 485.579 363.801 494.333 358.48 502.455C356.499 505.483 354.363 508.682 352.116 511.691H318.734ZM361.703 225.958H317.224C311.025 216.509 299.606 215.277 299.606 215.277C299.606 215.277 289.065 188.264 258.75 189.29C235.129 190.089 224.326 200.062 214.051 215.711C212.084 218.705 210.101 222.319 207.694 225.958H109.47C88.2568 225.958 71 243.188 71 264.367V476.174C71 496.762 87.3223 513.571 107.721 514.494C115.427 521.925 124.515 523.914 129.918 523.914C130.865 523.914 131.7 523.854 132.391 523.752C136.977 523.08 144.137 520.891 153.581 514.583H294.998H353.561H361.703C382.914 514.583 400.173 497.352 400.173 476.174V264.367C400.173 243.188 382.914 225.958 361.703 225.958Z" fill="#393F49"/>
<path fill-rule="evenodd" clip-rule="evenodd" d="M258.417 340.07C256.498 341.113 254.315 341.913 251.927 342.45C251.148 342.625 250.658 343.398 250.835 344.178C250.984 344.851 251.582 345.306 252.245 345.306C252.349 345.306 252.457 345.295 252.565 345.27C255.212 344.677 257.646 343.782 259.802 342.608C260.504 342.229 260.763 341.349 260.381 340.649C259.997 339.948 259.121 339.686 258.417 340.07Z" fill="#393F49"/>
<path fill-rule="evenodd" clip-rule="evenodd" d="M268.668 263.59C267.545 265.05 267.42 267.283 268.392 268.579C269.364 269.875 271.062 269.742 272.186 268.283C273.309 266.825 273.432 264.59 272.462 263.294C271.49 261.998 269.794 262.131 268.668 263.59Z" fill="#393F49"/>
<path fill-rule="evenodd" clip-rule="evenodd" d="M293.27 269.588C294.269 268.066 294.306 265.833 293.351 264.599C292.396 263.368 290.809 263.602 289.808 265.124C288.81 266.646 288.772 268.879 289.727 270.111C290.685 271.344 292.269 271.11 293.27 269.588Z" fill="#393F49"/>
<path fill-rule="evenodd" clip-rule="evenodd" d="M276.795 286.808L280.753 287.191C280.882 287.204 281.006 287.212 281.129 287.212C282.047 287.212 282.865 286.824 283.409 286.121C284.028 285.319 284.182 284.22 283.866 283.438L282.933 279.519C282.234 274.968 283.183 271.072 283.193 271.033C283.386 270.259 282.915 269.473 282.14 269.281C281.359 269.084 280.581 269.552 280.385 270.326C280.34 270.508 279.279 274.804 280.093 280.071L281.054 284.315L277.071 283.93C276.286 283.859 275.57 284.434 275.493 285.232C275.414 286.024 276 286.731 276.795 286.808Z" fill="#393F49"/>
<path fill-rule="evenodd" clip-rule="evenodd" d="M261.149 295.729C261.417 295.729 261.689 295.655 261.932 295.497C262.605 295.066 262.798 294.17 262.364 293.5C261.029 291.435 260.346 289.689 260.024 288.292C262.416 291.072 266.69 294.091 273.761 293.544C274.558 293.48 275.154 292.783 275.09 291.987C275.027 291.192 274.323 290.593 273.532 290.662C263.215 291.483 260.277 283.463 260.159 283.129C259.97 282.581 259.469 282.198 258.89 282.158C258.302 282.144 257.764 282.428 257.501 282.944C257.403 283.135 255.171 287.697 259.932 295.068C260.208 295.495 260.674 295.729 261.149 295.729Z" fill="#393F49"/>
<path fill-rule="evenodd" clip-rule="evenodd" d="M261.731 254.461C262.136 254.461 262.539 254.291 262.826 253.96C262.983 253.779 266.707 249.587 272.688 252.888C273.389 253.271 274.27 253.016 274.656 252.319C275.042 251.621 274.787 250.741 274.087 250.354C267.679 246.821 262.485 249.931 260.635 252.071C260.112 252.674 260.18 253.586 260.784 254.109C261.058 254.345 261.395 254.461 261.731 254.461Z" fill="#393F49"/>
<path fill-rule="evenodd" clip-rule="evenodd" d="M226.804 250.204C224.935 250.04 223.089 250.608 221.639 251.813C220.188 253.022 219.297 254.722 219.126 256.599C218.956 258.477 219.529 260.308 220.738 261.757C221.949 263.205 223.649 264.094 225.531 264.266C225.574 264.27 225.618 264.273 225.664 264.273C226.403 264.273 227.036 263.706 227.105 262.956C227.176 262.162 226.588 261.457 225.792 261.386C224.681 261.285 223.676 260.758 222.962 259.906C222.248 259.049 221.911 257.969 222.011 256.86C222.111 255.751 222.638 254.747 223.494 254.034C224.351 253.323 225.437 252.991 226.544 253.084C227.653 253.184 228.66 253.71 229.373 254.567C229.883 255.178 230.793 255.263 231.412 254.749C232.027 254.237 232.11 253.327 231.597 252.713C230.388 251.266 228.685 250.376 226.804 250.204Z" fill="#393F49"/>
<path fill-rule="evenodd" clip-rule="evenodd" d="M588.46 634.561L588.495 634.283H585.575L585.54 634.561H588.46Z" fill="#393F49"/>
<path fill-rule="evenodd" clip-rule="evenodd" d="M631.214 392.314C632.59 392.546 633.978 391.126 634.312 389.146C634.644 387.163 633.799 385.37 632.422 385.14C631.045 384.907 629.658 386.326 629.324 388.308C628.992 390.288 629.837 392.084 631.214 392.314Z" fill="#393F49"/>
<path fill-rule="evenodd" clip-rule="evenodd" d="M659.398 412.732C658.839 412.636 658.266 412.881 657.948 413.354C657.753 413.644 653.058 420.43 643.634 417.225C642.876 416.966 642.052 417.372 641.794 418.127C641.537 418.884 641.942 419.705 642.698 419.962C650.02 422.454 655.116 419.839 657.892 417.544C657.618 420.123 656.231 423.719 651.058 425.78C650.315 426.076 649.953 426.918 650.25 427.658C650.477 428.225 651.021 428.569 651.596 428.569C651.775 428.569 651.957 428.536 652.132 428.465C663.051 424.111 660.584 413.899 660.557 413.797C660.416 413.246 659.961 412.827 659.398 412.732Z" fill="#393F49"/>
<path fill-rule="evenodd" clip-rule="evenodd" d="M660.08 374.73C659.324 374.987 658.917 375.808 659.177 376.563C659.435 377.32 660.259 377.734 661.015 377.465C667.17 375.377 670.063 379.942 670.191 380.152C670.461 380.604 670.939 380.853 671.431 380.853C671.683 380.853 671.938 380.786 672.171 380.65C672.858 380.241 673.084 379.354 672.675 378.667C671.267 376.304 666.823 372.439 660.08 374.73Z" fill="#393F49"/>
<path fill-rule="evenodd" clip-rule="evenodd" d="M628.962 372.01C628.319 372.483 628.18 373.385 628.651 374.032C629.122 374.675 630.026 374.816 630.674 374.343C634.63 371.455 637.967 374.401 638.336 374.747C638.615 375.017 638.976 375.15 639.335 375.15C639.715 375.15 640.093 375 640.378 374.708C640.934 374.132 640.916 373.217 640.34 372.661C638.513 370.901 633.782 368.492 628.962 372.01Z" fill="#393F49"/>
<path fill-rule="evenodd" clip-rule="evenodd" d="M688.62 412.06C689.706 412.711 690.921 413.045 692.156 413.045C692.717 413.045 693.282 412.975 693.841 412.836C695.629 412.39 697.134 411.275 698.081 409.699C699.03 408.121 699.306 406.271 698.858 404.488C698.665 403.713 697.878 403.238 697.103 403.435C696.326 403.63 695.855 404.413 696.05 405.189C696.31 406.224 696.148 407.298 695.599 408.212C695.049 409.126 694.175 409.771 693.139 410.03C692.105 410.283 691.025 410.128 690.111 409.58C689.424 409.17 688.537 409.394 688.124 410.076C687.712 410.762 687.935 411.65 688.62 412.06Z" fill="#393F49"/>
<path fill-rule="evenodd" clip-rule="evenodd" d="M642.561 472.431C647.258 475.46 653.48 476.978 661.157 476.978C666.689 476.978 672.975 476.19 679.992 474.614C680.773 474.438 681.263 473.665 681.089 472.885C680.91 472.108 680.138 471.61 679.357 471.792C659.568 476.238 649.337 473.31 644.241 470.071C639.186 466.86 638.239 462.891 638.192 462.686C638.03 461.904 637.27 461.404 636.485 461.566C635.702 461.726 635.197 462.491 635.359 463.273C635.403 463.484 636.497 468.518 642.561 472.431Z" fill="#393F49"/>
<path fill-rule="evenodd" clip-rule="evenodd" d="M549.269 581.843C550.23 580.753 551.69 580.168 553.426 580.168C553.654 580.168 553.889 580.18 554.126 580.201C556.333 580.39 558.609 581.422 560.532 583.114C562.457 584.804 563.774 586.925 564.243 589.088C564.677 591.087 564.32 592.868 563.23 594.106C562.142 595.342 560.401 595.91 558.373 595.752C556.165 595.563 553.891 594.527 551.966 592.839C550.043 591.147 548.722 589.026 548.255 586.863C547.819 584.862 548.18 583.079 549.269 581.843ZM550.054 595.008C552.44 597.104 555.305 598.39 558.125 598.632C558.449 598.659 558.769 598.674 559.083 598.674C561.66 598.674 563.88 597.745 565.406 596.013C567.115 594.075 567.707 591.396 567.076 588.476C566.476 585.714 564.831 583.04 562.445 580.945C560.061 578.847 557.193 577.559 554.373 577.319C551.393 577.058 548.808 577.993 547.094 579.936C545.383 581.874 544.791 584.553 545.425 587.477C546.025 590.237 547.668 592.911 550.054 595.008Z" fill="#393F49"/>
<path fill-rule="evenodd" clip-rule="evenodd" d="M780.91 605.242C780.923 604.443 780.285 603.788 779.484 603.774C759.363 603.446 744.158 609.779 743.523 610.048C742.788 610.361 742.445 611.207 742.756 611.941C742.989 612.493 743.527 612.822 744.09 612.822C744.279 612.822 744.47 612.787 744.654 612.708C744.806 612.642 759.897 606.318 779.44 606.666C780.233 606.581 780.898 606.038 780.91 605.242Z" fill="#393F49"/>
<path fill-rule="evenodd" clip-rule="evenodd" d="M826.304 628.971C826.304 648.555 810.347 664.488 790.734 664.488H755.936L753.992 657.66C756.542 657.448 758.791 657.199 760.606 656.899C777.512 654.112 790.121 648.584 798.083 640.471C806.57 631.822 809.7 620.37 807.384 606.428C803.513 583.122 797.562 571.592 795.568 568.225C798.98 565.539 801.842 562.954 803.765 560.605L804.531 559.667L803.742 558.749C802.201 556.953 797.796 550.772 791.701 542.217C782.037 528.652 767.432 508.152 751.118 486.702C732.821 462.641 706.389 455.681 692.218 453.649L691.431 420.964C691.429 420.863 691.392 420.774 691.371 420.678C695.699 420.693 701.013 419.484 704.784 414.47C707.847 410.398 708.495 405.753 706.603 401.393C705.648 399.189 704.057 397.231 702.215 395.797C702.496 395.463 703.011 394.557 703.349 393.707C703.349 393.707 706.128 388.817 708.644 381.647H790.734C810.347 381.647 826.304 397.58 826.304 417.166V628.971ZM502.925 628.971V605.045L518.774 635.16C518.6 635.567 518.5 636.013 518.5 636.483V640.564C518.5 642.42 520.012 643.931 521.87 643.931H579.655C580.828 644.765 582.284 645.775 583.945 646.88L581.665 664.488H538.498C518.884 664.488 502.925 648.555 502.925 628.971ZM646.202 636.008H706.182C706.443 636.008 706.655 636.22 706.655 636.483V640.564C706.655 640.827 706.443 641.039 706.182 641.039H658.878C655.994 639.608 651.67 637.713 646.202 636.008ZM521.87 641.039C521.609 641.039 521.397 640.827 521.397 640.564V636.483C521.397 636.22 521.609 636.008 521.87 636.008H605.683C605.772 636.261 605.872 636.516 606.009 636.767C606.784 638.211 608.453 639.645 610.652 641.039H521.87ZM656.538 654.444C656.394 654.444 656.253 654.458 656.118 654.487C655.813 654.566 625.909 662.219 611.08 657.608C601.725 654.701 591.346 648.348 584.782 643.931H616.064C626.912 648.953 642.56 652.895 645.006 653.494C645.122 653.521 645.239 653.536 645.353 653.536C646.003 653.536 646.597 653.096 646.759 652.435C646.948 651.661 646.474 650.875 645.698 650.687C636.432 648.412 611.695 641.232 608.559 635.401C608.241 634.81 608.308 634.455 608.387 634.238C608.893 632.826 612.671 632.075 621.779 634.176C624.522 634.808 627.477 635.206 630.337 635.592C633.221 635.979 636.203 636.384 638.953 637.024C652.548 640.193 661.333 645.656 661.42 645.71C662.097 646.133 662.99 645.932 663.418 645.256C663.679 644.841 663.677 644.352 663.501 643.931H706.182C708.04 643.931 709.552 642.42 709.552 640.564V636.483C709.552 634.628 708.04 633.116 706.182 633.116H677.007L740.417 613.451C740.814 613.327 741.14 613.036 741.308 612.659C741.478 612.278 741.476 611.846 741.304 611.469L737.296 602.735C741.264 600.73 753.986 594.224 765.606 587.4C778.415 579.882 789.583 572.473 793.251 570.01C795.254 573.545 800.88 584.941 804.527 606.901C806.684 619.883 803.819 630.495 796.017 638.447C788.493 646.113 776.419 651.363 760.135 654.048C738.853 657.552 657.358 654.473 656.538 654.444ZM584.593 664.419L586.636 648.636C593.211 652.839 602.012 657.817 610.22 660.37C613.979 661.539 618.554 661.985 623.355 661.985C637.862 661.985 654.419 657.904 656.637 657.34C661.586 657.527 722.286 659.77 751.043 657.879L752.904 664.419H584.593ZM650 396.697C649.89 393.617 650.989 390.681 653.09 388.427C655.194 386.174 658.049 384.871 661.131 384.762C661.272 384.757 661.411 384.755 661.553 384.755C664.481 384.755 667.259 385.844 669.413 387.847C671.67 389.947 672.974 392.798 673.084 395.877C673.192 398.955 672.096 401.891 669.992 404.144C667.891 406.398 665.033 407.7 661.951 407.81C658.87 407.906 655.929 406.823 653.67 404.725C651.413 402.625 650.11 399.774 650 396.697ZM474.876 542.825C475.354 542.032 476.191 541.564 477.117 541.564H594.079C596.392 541.564 598.498 542.835 599.576 544.879L631.915 606.323C632.285 607.03 633.159 607.299 633.869 606.93C634.575 606.561 634.849 605.686 634.476 604.979L602.14 543.536C601.69 542.681 601.108 541.931 600.442 541.28C604.765 511.704 608.812 493.872 608.867 493.631C609.045 492.852 608.559 492.078 607.78 491.9C607.002 491.718 606.225 492.207 606.044 492.987C605.99 493.223 602.049 510.597 597.784 539.461C596.637 538.951 595.381 538.671 594.079 538.671H566.252C564.354 534.657 563.017 531.53 562.448 530.168C566.219 525.138 590.592 492.74 598.872 484.885C616.629 468.043 631.307 460.798 638.425 457.986C638.776 456.852 639.129 455.647 639.432 454.501C633.065 456.707 617.04 463.666 596.878 482.791C587.76 491.44 560.78 527.562 559.636 529.096L559.152 529.745L559.453 530.496C559.542 530.724 559.91 531.626 560.512 533.032L559.22 534.213C557.366 532.298 552.606 527.043 543.835 515.366C531.608 499.089 521.748 486.302 519.279 483.343C517.765 481.529 517.829 480.419 518.481 474.039C518.666 472.241 518.888 470.068 519.108 467.41C520.111 455.411 520.612 448.413 520.612 448.413C520.655 447.81 520.317 447.244 519.767 446.993C517.567 446 515.379 446.004 513.263 447.022C507.859 449.612 504.387 458.442 502.925 462.934V417.166C502.925 397.58 518.884 381.647 538.498 381.647H616.299C614.484 384.154 613.502 387.142 613.616 390.283C613.747 394.016 615.325 397.472 618.064 400.018C619.094 400.976 620.269 401.71 621.501 402.309C621.362 405.154 621.308 407.939 621.401 410.551C622.016 428.002 632.023 436.791 641.185 439.199C644.337 440.028 647.334 440.447 650.262 440.447C655.47 440.447 660.456 439.12 665.702 436.414C670.808 433.781 676.058 429.571 679.744 425.157C680.257 424.541 680.172 423.629 679.559 423.119C678.942 422.609 678.031 422.692 677.52 423.303C674.12 427.376 669.083 431.415 664.373 433.845C656.864 437.722 649.938 438.508 641.922 436.404C639.104 435.663 625.014 430.934 624.294 410.45C624.215 408.2 624.244 405.805 624.352 403.344C625.407 403.595 626.483 403.767 627.591 403.767C627.762 403.767 627.932 403.765 628.1 403.757C630.864 403.659 633.472 402.761 635.678 401.2C635.209 402.09 634.673 403.021 634.041 404.008C630.663 409.276 630.698 409.436 630.85 410.095C630.97 410.622 631.375 411.039 631.898 411.174L639.378 413.114C639.499 413.145 639.621 413.16 639.744 413.16C640.386 413.16 640.973 412.727 641.141 412.078C641.343 411.304 640.88 410.516 640.105 410.315L634.426 408.841C634.851 408.14 635.497 407.099 636.477 405.567C641.767 397.321 641.538 391.901 641.528 391.675C641.521 391.581 641.484 391.502 641.463 391.415C641.544 390.715 641.621 390.012 641.594 389.294C641.565 388.43 641.438 387.586 641.256 386.758C642.88 386.18 646.314 385.562 649.066 389.074C647.714 391.397 647.008 394.045 647.108 396.796C647.243 400.646 648.873 404.213 651.695 406.84C654.39 409.347 657.865 410.709 661.528 410.709C661.704 410.709 661.879 410.705 662.053 410.699C665.909 410.564 669.481 408.936 672.11 406.116C674.741 403.296 676.114 399.624 675.977 395.776C675.84 391.925 674.21 388.359 671.386 385.732C668.561 383.105 664.865 381.701 661.029 381.873C657.173 382.01 653.601 383.636 650.972 386.456C650.914 386.518 650.875 386.595 650.817 386.659C647.43 382.898 643.104 383.061 640.357 384.007C639.603 382.35 638.523 380.839 637.148 379.559C634.556 377.15 631.207 375.856 627.702 375.854C628.68 370.399 629.554 366.355 629.818 365.169C630.308 364.632 630.893 364.149 631.464 363.658C637.968 363.179 642.288 359.894 646.628 359.656C652.006 359.362 661.642 365.999 661.642 365.999C661.642 365.999 666.148 365.404 663.858 360.711C661.569 356.017 674.216 366.93 676.808 370.859C684.452 382.46 685.55 395.324 685.685 400.862C685.691 401.072 686.194 400.29 686.952 399.234L688.869 398.084C688.906 398.061 692.617 395.855 696.554 396.303C698.94 396.564 702.344 398.843 703.945 402.54C704.977 404.922 705.561 408.625 702.469 412.735C696.484 420.695 685.357 416.952 684.884 416.786C684.138 416.531 683.305 416.921 683.042 417.674C682.778 418.427 683.175 419.25 683.928 419.513C684.13 419.584 685.997 420.212 688.626 420.519C688.57 420.68 688.53 420.852 688.534 421.035L689.61 465.673C689.631 466.459 690.275 467.083 691.06 467.083H691.095C691.892 467.064 692.526 466.4 692.507 465.602L692.289 456.57C706.067 458.615 731.313 465.44 748.811 488.45C765.096 509.865 779.688 530.342 789.342 543.894C794.862 551.643 798.76 557.111 800.76 559.663C798.583 562.091 795.443 564.77 791.71 567.557C788.192 569.925 777.015 577.348 764.138 584.91C763.015 585.569 761.881 586.224 760.745 586.873C747.382 594.296 736.046 599.849 735.801 599.967L734.712 600.498L734.717 600.506C724.917 605.348 714.476 606.517 711.234 606.772C709.976 603.447 705.594 591.207 698.857 565.546C692.308 540.602 690.771 522.127 690.756 521.943C690.692 521.148 690.021 520.555 689.197 520.618C688.401 520.682 687.805 521.379 687.868 522.175C687.884 522.359 689.438 541.07 696.054 566.28C704.136 597.065 708.736 608.367 708.929 608.834L709.311 609.762L710.318 609.729C710.852 609.711 722.751 609.225 734.588 603.78L737.373 609.841L737.771 611.243L667.938 632.902C667.808 632.942 667.712 633.041 667.598 633.116H649.286L642.01 619.292C641.638 618.587 640.764 618.309 640.055 618.685C639.347 619.056 639.073 619.931 639.447 620.636L645.868 632.836H631.498C631.24 632.803 630.981 632.761 630.725 632.726C627.803 632.332 625.043 631.959 622.431 631.358C612.731 629.122 607.479 629.612 605.895 632.836H520.824L474.799 545.389C474.369 544.575 474.4 543.615 474.876 542.825ZM495.453 514.088C495.333 513.848 495.146 513.642 494.913 513.504C494.762 513.41 479.513 503.993 469.797 491.38C459.696 478.269 459.191 475.31 459.571 473.021C459.706 472.21 459.912 471.856 459.908 471.721C467.128 475.98 474.567 483.689 476.34 485.584C475.119 488.265 474.637 490.102 474.585 490.306C474.394 491.079 474.87 491.863 475.646 492.053C475.761 492.082 475.879 492.095 475.993 492.095C476.643 492.095 477.235 491.655 477.397 490.996C477.405 490.961 478.967 485.943 482.034 481.645C486.017 476.065 491.95 470.74 494.297 469.22C494.965 468.787 495.156 467.891 494.72 467.219C494.286 466.552 493.389 466.359 492.716 466.796C491.892 467.329 491.113 467.883 490.357 468.441C490.305 468.356 490.268 468.265 490.195 468.19C490.195 468.19 486.759 464.636 483.604 461.468C476.261 454.094 470.143 448.44 469.244 447.611C469.024 447.2 468.663 446.292 468.906 445.512C469.091 444.925 469.633 444.43 470.513 444.042C473.221 442.835 487.217 452.556 494.967 459.432C498.116 462.227 500.454 464.692 501.613 465.967C500.23 467.8 497.993 472.028 498.867 479.737C499.598 486.183 504.449 492.296 504.657 492.553C504.944 492.912 505.363 493.096 505.787 493.096C506.104 493.096 506.422 492.993 506.69 492.779C507.315 492.282 507.415 491.371 506.918 490.749C506.873 490.691 502.379 485.016 501.746 479.411C500.732 470.477 504.294 467.211 504.476 467.052C504.493 467.037 504.499 467.016 504.514 467.002C504.553 466.969 504.572 466.925 504.605 466.888C504.736 466.741 504.829 466.577 504.89 466.396C504.9 466.363 504.933 466.34 504.941 466.307C505.922 462.475 509.55 452.008 514.515 449.628C515.545 449.135 516.573 449.023 517.644 449.298C517.468 451.693 516.994 457.955 516.224 467.17C516.004 469.807 515.784 471.962 515.601 473.745C514.938 480.214 514.716 482.393 517.054 485.194C519.501 488.124 529.319 500.859 541.517 517.099C553.472 533.015 558.033 537.122 558.222 537.29C558.774 537.782 559.611 537.774 560.161 537.276L561.739 535.833C562.128 536.702 562.556 537.647 563.031 538.671H508.603C501.251 525.633 495.518 514.219 495.453 514.088ZM456.751 458.308C457.067 457.677 457.436 457.495 457.686 457.41C458.477 457.157 459.499 457.514 459.899 457.7C460.535 458.181 466.59 462.801 471.836 468.476C475.113 472.02 478.986 475.965 480.892 477.89C479.605 479.633 478.566 481.303 477.727 482.835C475.05 480.038 468.166 473.197 461.249 469.152C459.486 467.163 455.231 461.347 456.751 458.308ZM462.749 448.726C464.817 447.553 467.014 449.493 467.101 449.572C467.101 449.572 467.101 449.572 467.103 449.572C467.103 449.572 467.103 449.572 467.103 449.574C467.17 449.632 473.692 455.616 481.55 463.508C484.69 466.66 488.112 470.197 488.115 470.201C488.117 470.203 488.121 470.203 488.123 470.207C486.021 471.974 484.233 473.803 482.707 475.609C480.745 473.627 477.086 469.894 473.966 466.517C468.995 461.138 463.423 456.755 461.905 455.591C461.417 453.81 460.786 449.846 462.749 448.726ZM619.48 382.232C619.694 382.002 619.962 381.855 620.195 381.647H623.781C622.923 387.076 622.12 393.157 621.686 399.16C621.106 398.793 620.55 398.378 620.037 397.901C617.867 395.882 616.612 393.141 616.508 390.182C616.403 387.223 617.458 384.399 619.48 382.232ZM627.203 378.709C627.207 378.709 627.207 378.709 627.211 378.707C627.346 378.703 627.481 378.701 627.616 378.701C630.43 378.701 633.101 379.748 635.173 381.674C637.343 383.696 638.596 386.437 638.701 389.396C638.807 392.355 637.752 395.179 635.73 397.346C633.707 399.512 630.962 400.763 627.998 400.868C626.798 400.912 625.633 400.717 624.51 400.389C625.002 392.939 626.115 385.124 627.203 378.709ZM790.734 378.757H709.593C712.436 369.6 714.357 357.705 710.262 347.34C701.86 326.078 686.925 325.514 678.544 325.61C670.071 325.703 661.665 328.732 661.665 328.732C661.665 328.732 654.517 321.206 643.723 322.85C631.77 324.67 628.291 335.604 621.652 338.977C615.011 342.353 610.922 341.895 613.375 347.814C615.827 353.734 619.576 362.385 626.404 363.479C626.746 363.533 627.043 363.523 627.376 363.562L627.155 363.815L627.076 364.168C626.968 364.63 625.887 369.416 624.695 376.14C622.624 376.576 620.691 377.463 619.019 378.757H538.498C517.287 378.757 500.03 395.987 500.03 417.166V460.192C499.098 459.286 498.057 458.306 496.89 457.271C496.679 457.082 475.534 438.68 469.348 441.396C467.236 442.323 466.435 443.698 466.133 444.683C466.025 445.033 465.967 445.38 465.942 445.713C464.607 445.319 462.979 445.261 461.311 446.217C458.29 447.94 458.309 451.861 458.707 454.445C458.111 454.407 457.455 454.449 456.805 454.656C455.663 455.025 454.749 455.84 454.16 457.014C452.048 461.235 455.804 466.967 457.954 469.716C457.339 470.357 456.921 471.304 456.716 472.546C456.103 476.22 457.561 480.241 467.5 493.142C476.832 505.255 490.609 514.213 493.047 515.747C494.047 517.725 499 527.458 505.28 538.671H477.117C475.169 538.671 473.406 539.667 472.399 541.33C471.391 542.995 471.331 545.014 472.237 546.735L500.03 599.544V628.971C500.03 650.152 517.287 667.38 538.498 667.38H790.734C811.942 667.38 829.201 650.152 829.201 628.971V417.166C829.201 395.987 811.942 378.757 790.734 378.757Z" fill="#393F49"/>
</mask>
<g mask="url(#mask3_0_692)">
<rect width="892" height="889" transform="translate(8 11.1207)" fill="white"/>
<rect x="8" y="11.1207" width="892" height="889" rx="80" fill="#475574"/>
</g>
<path fill-rule="evenodd" clip-rule="evenodd" d="M106.842 320.996C106.705 320.918 106.692 320.754 106.871 320.65C106.827 320.789 107.28 320.601 107.601 320.538C107.386 320.667 107.123 320.826 106.842 320.996ZM105.483 321.943C105.562 321.875 105.668 321.773 105.876 321.63L105.88 321.637C105.705 321.751 105.568 321.867 105.483 321.943ZM102.34 320.951V321.015C102.318 320.934 102.303 320.853 102.322 320.771C102.561 320.516 102.702 320.507 102.789 320.545C102.671 320.652 102.53 320.781 102.34 320.951ZM271.539 201.441C271.825 201.495 271.603 201.802 271.381 201.818C270.647 201.974 270.452 201.483 270.441 201.336L270.957 201.352C270.622 200.434 268.928 201.041 267.939 200.861L268.461 200.337L267.34 200.66C267.145 200.469 267.039 200.113 267.557 200.107C266.865 199.701 266.881 200.196 266.291 199.806C266.227 199.748 266.264 199.723 266.33 199.707L265.586 199.808C265.744 199.696 265.514 199.375 265.95 199.508C264.676 199.038 263.814 199.713 263.356 199.259L263.469 199.226C261.644 199.357 263.261 199.659 261.893 200.123L261.012 199L260.827 199.433C260.64 199.402 260.272 199.375 260.341 199.201C259.645 199.527 260.459 199.388 260.056 199.688C259.152 199.315 257.606 199.955 257.36 199.261C257.061 199.607 258.233 199.491 257.294 199.757C256.961 198.996 256.205 200.001 255.359 199.742C255.567 199.326 256.371 199.44 255.509 199.189C255.091 199.906 253.886 199.218 253.204 199.45C253.221 199.609 253.067 199.713 252.853 199.802C252.93 199.622 253.048 199.514 253.204 199.45C253.193 199.373 253.154 199.288 253.073 199.185C252.884 199.205 252.886 199.614 252.846 199.804C252.35 200.007 251.417 200.103 250.646 200.386C250.666 200.144 248.44 200.627 247.343 200.826L247.345 200.733C247.314 201.319 246.194 201.51 245.483 201.936C245.4 201.638 245.475 201.425 245.855 201.161C245.604 201.23 245.373 201.35 245.134 201.454C245.028 201.686 244.841 201.866 244.406 202.125L244.431 201.682C243.492 202.146 242.7 202.908 241.412 203.298C241.53 203.658 242.777 203.683 241.723 204.597C241.584 204.446 241.374 204.174 241.646 203.917C241.557 204 241.364 204.278 241.119 204.324L241.432 203.747C240.846 203.922 241.297 204.154 240.873 204.367C240.742 204.114 240.468 204.371 240.414 204.139C240.506 204.052 240.834 204.029 240.936 203.837C240.445 204.069 239.795 204.259 239.493 204.187C239.618 204.301 239.691 204.516 239.371 204.748C238.496 205.293 238.882 204.638 238.282 204.827C238.165 205.107 237.5 205.304 237.741 205.681C237.502 205.863 237.342 205.735 237.182 205.712C236.866 206.193 235.233 207.285 235.991 207.272L236.116 207.212L236.06 207.28C234.904 208.594 233.167 209.431 232.07 210.789L231.97 210.689C231.342 211.518 230.417 212.372 230.191 213.132C229.991 213.356 229.528 213.497 229.484 213.288C229.058 213.946 229.119 214.11 228.214 214.819C228.528 214.06 227.872 214.883 228.593 214.089C227.849 214.782 227.516 214.808 227.128 215.894C227.082 215.376 226.284 216.186 226.068 216.632L226.718 216.249C226.419 216.7 226.095 217.046 225.768 217.399L225.556 216.895C223.79 218.149 224.018 220.43 222.285 221.079C222.219 221.717 223.156 220.333 223.173 220.961C222.541 221.671 221.389 222.042 221.211 222.281C220.211 223.161 221.042 223.673 220.084 224.655C220.325 224.616 220.791 224.759 220.319 225.668C219.706 226.394 219.047 226.184 219.288 225.619C219.413 225.426 219.521 225.37 219.563 225.412C219.693 225.128 219.876 224.761 219.502 224.954L219.567 225.155C219.145 225.43 218.386 226.495 218.34 226.083C218.05 226.758 218.388 226.495 218.773 226.118C217.854 226.957 217.646 227.654 216.78 228.574C216.973 228.466 217.245 228.435 217.127 228.594C215.88 229.958 216.919 229.433 216.248 230.476C215.618 230.884 215.89 229.906 215.331 231.031C214.739 231.533 214.87 230.886 214.934 230.563C214.529 231.663 213.519 232.125 213.064 232.575L213.319 232.03C213.166 232.355 212.985 232.581 212.8 232.809L213.282 232.757C213.018 232.991 212.835 233.219 212.727 233.126C212.679 233.545 213.348 233.265 213.145 234.011C212.719 234.266 212.407 235.238 211.954 235.074C212.983 234.032 211.499 234.912 212.207 233.903C212.101 234.123 211.921 234.349 211.657 234.581C211.584 234.589 211.615 234.483 211.653 234.392C210.474 235.219 211.653 235.215 210.711 236.309C210.632 236.004 210.121 236.247 210.011 236.46C210.391 236.025 210.518 236.526 210.318 237.061C209.564 237.631 209.774 237.921 209.439 238.275L209.871 237.917C209.94 238.23 209.618 238.563 209.229 239.088C209.042 238.992 209.529 238.563 209.304 238.673C209.146 239.504 207.853 239.545 207.396 240.482C206.953 240.7 207.016 240.182 206.656 240.395C206.103 241.412 205.551 240.99 204.917 242.003C205.395 242.015 205.382 241.91 205.027 242.732L206.23 241.207L205.7 242.432C206.122 242.026 206.426 241.414 206.717 241.211C206.496 241.823 206.475 241.721 206.881 241.725C205.943 241.92 205.956 243.058 205.05 243.462L204.482 242.819C203.19 243.439 202.99 244.825 201.444 245.778L201.986 245.53C202.018 245.942 201.155 246.265 200.791 246.74C200.656 246.483 200.309 246.63 200.01 246.645C200.17 246.804 198.952 247.397 199.158 247.954L198.293 248.122C197.042 248.824 197.381 249.703 196.157 250.399C196.346 249.908 195.712 250.078 196.369 249.386C195.98 249.635 195.61 249.819 195.704 249.985C195.382 249.962 194.785 250.948 194.28 250.923C194.172 251.127 194.263 251.429 193.79 251.655C193.713 251.628 193.727 251.531 193.727 251.531C193.792 251.655 193.081 252.059 193.636 252.14C191.973 251.993 189.997 253.911 188.536 253.518C187.627 253.953 186.468 254.299 185.587 254.527C185.626 254.434 185.56 254.388 185.734 254.388C184.46 254.326 185.123 255.352 183.639 255.254C182.856 254.865 184.367 254.935 183.889 254.805C183.566 253.891 182.255 255.093 181.147 254.639L181.39 254.56C180.586 254.313 179.528 255.084 178.269 255.132C178.269 255.132 178.321 255.045 178.258 254.991C177.452 255.559 175.879 256.025 174.717 256.344C175.012 255.921 175.22 256.062 174.921 255.735C174.395 255.884 175.189 256.28 174.156 256.595C173.773 256.487 172.975 256.512 172.772 256.153L173.771 255.872C173.138 255.505 172.47 256.228 171.922 256.278L171.93 256.044C170.39 256.497 170.567 257.123 168.952 257.647L169.178 257.747C168.53 258.603 168.31 257.677 167.645 258.478L167.154 258.083C166.645 258.487 165.431 259.494 164.602 260.221C164.878 259.498 165.911 258.663 166.553 258.118C165.978 258.356 164.679 259.115 164.575 259.566C164.756 259.386 164.953 259.096 165.207 259.04C164.799 259.861 164.051 260.488 163.101 261.23C162.852 260.72 162.179 261.172 161.412 261.744C160.682 262.364 159.934 263.159 159.282 263.205C158.161 265.18 156.47 266.74 155.547 269.243C156.682 268.7 155.293 269.964 156.185 270.115C156.023 270.652 155.977 270.861 155.902 270.907C155.898 270.913 155.894 270.919 155.888 270.928L155.892 270.93C155.557 271.442 155.191 271.962 154.898 272.507C154.549 272.863 154.84 271.908 154.634 271.91C154.265 273.178 154.144 272.357 153.71 273.172C154.053 273.064 154.061 273.715 153.811 274.428L154.402 273.472C154.541 275.333 153.377 274.9 153.604 276.765L153.396 276.162C153.431 277.128 153.018 279.523 153.643 280.459C153.525 280.605 153.261 280.787 153.238 280.391C152.926 282.492 153.475 285.165 152.768 286.711L152.579 286.52C152.577 286.914 152.878 287.26 152.577 287.704C152.494 287.662 152.392 287.511 152.348 287.685C152.384 287.898 152.527 288.769 152.307 289.251L152.151 288.773C151.482 290.69 152.066 291.929 151.719 293.62C151.091 293.427 150.461 294.877 150.054 295.54L149.977 295.482C149.098 297.577 148.93 299.247 147.957 301.174C147.329 301.556 146.591 302.358 145.808 303.247C144.96 304.121 144.029 305.033 143.125 305.514C143.441 305.418 143.401 305.928 143.141 306.195C142.693 306.384 142.3 307.343 142.04 306.792L142.19 306.715C141.572 306.411 140.876 307.032 140.176 307.296L140.369 308.048C138.226 307.853 135.159 309.904 133.743 309.175C133.253 309.461 132.602 309.577 132.116 309.861L132.068 309.455C130.578 309.629 129.834 309.716 128.028 310.192L128.34 309.83C127.301 310.012 127.292 311.262 126.363 311.498L125.942 310.967C124.167 311.394 122.217 311.326 120.634 312.372C120.638 312.279 120.642 312.095 120.92 311.989C120.087 312.204 117.591 312.526 118.146 313.249C117.963 312.733 116.331 313.773 115.475 314.299L115.494 313.87C114.862 314.602 114.885 314.79 113.842 315.335C113.638 315.375 113.551 315.24 113.673 315.151C113.052 315.335 113.231 315.725 112.221 315.911L112.514 315.522C111.61 315.849 111.726 315.928 111.375 316.421C110.911 316.838 109.725 317.14 109.429 316.883C109.413 317.138 109.087 317.635 108.538 317.797C108.403 317.71 108.546 317.542 108.617 317.459C107.037 317.93 106.825 319.084 105.672 319.297C105.578 319.198 105.483 319.181 105.381 319.196C106.466 318.524 107.347 317.998 107.28 318.075C107.098 317.751 106.177 318.253 106.62 317.37C106.04 318.062 105.171 319.328 104.225 319.72C104.165 319.72 104.107 319.72 104.045 319.697L104.105 319.6C103.897 319.71 103.752 319.867 103.631 320.037C103.34 320.182 103.149 320.271 102.899 320.458C102.619 320.284 101.85 321.054 101.428 321.359C101.719 321.649 101.143 322.008 101.858 321.883C101.775 321.91 101.904 321.786 102.164 321.564C102.218 321.51 102.286 321.448 102.311 321.398L102.305 321.448C102.569 321.237 102.912 320.961 103.301 320.65C103.103 321.063 102.879 321.454 102.288 321.622C102.245 321.987 102.187 322.368 102.141 322.563C101.212 322.517 100.056 323.267 99.6635 323.124C98.614 324.318 97.1093 325.858 97.0574 327.107C96.8391 327.499 96.5523 327.343 96.3507 327.391C96.4609 327.151 96.6749 326.929 96.6833 326.753C96.199 327.513 95.058 328.839 95.3781 329.341C94.5281 330.097 95.3531 328.541 94.5177 329.834L94.5073 329.571C93.2167 330.528 92.8821 331.823 92.5163 333.071C92.0923 334.301 91.8575 335.597 90.6624 336.904C90.8204 336.72 90.8973 336.624 90.9991 336.618C89.0538 339.998 88.8793 344.142 88.075 347.857C87.8193 348.935 88.2786 349.061 88.5384 349.704L88.1124 349.952L88.6756 351.042C89.0455 352.549 88.0396 353.92 89.0434 355.794L89.2804 355.468C89.3697 356.189 90.1366 357.582 89.7584 357.576C89.8332 357.632 90.1242 357.704 90.066 358.019L89.8581 358.116C90.1844 358.628 90.4359 359.163 90.8225 359.635C91.2693 360.932 89.8872 359.793 90.7435 361.647C91.1612 362.302 92.2773 363.266 92.2856 362.932C92.163 362.658 92.0736 362.18 92.2669 362.051L92.6638 362.594C93.3102 362.381 94.1103 362.451 93.8526 360.845L93.0109 360.062L93.1543 359.612L93.57 360.412C93.6219 359.82 93.2374 359.652 92.9028 359.399C93.0255 359.25 93.0712 359.067 93.0358 358.852C92.6659 358.63 92.3604 358.377 92.0528 358.112C92.2606 357.901 92.6888 358.371 92.6056 357.656C92.1713 357.29 92.2025 358.313 91.7577 357.596C91.8824 357 92.1692 357.072 91.7307 356.577C91.8678 356.444 92.0154 356.533 92.163 356.734C91.7993 356.291 91.6247 355.427 91.2028 355.249C91.475 354.633 90.7747 353.475 91.4106 353.411C91.2298 353.278 90.7414 352.571 90.6229 352.082C91.4605 352.882 90.5107 350.24 91.3794 350.416C90.6375 349.801 90.9243 348.067 90.7144 346.877C90.7643 346.948 90.864 347.084 90.8204 347.184C90.9285 346.527 91.1488 346.355 91.3088 345.951C90.7269 345.806 90.7061 344.757 90.5128 344.142C91.2153 343.431 91.0719 344.745 91.6434 344.573C91.1799 344.544 91.4688 343.118 91.0386 343.311C91.4917 342.766 91.3046 342.814 91.8263 342.609C91.1716 342.337 91.7826 342.008 91.5519 341.409C92.1692 340.638 92.2606 341.372 92.3625 340.371C92.7137 339.996 92.6846 340.897 92.6846 340.897C93.0005 339.96 92.3292 340.292 92.1027 339.994C92.3355 338.79 92.6493 339.592 93.0296 339.297C93.0982 338.537 92.9631 337.851 93.1917 337.333C93.2894 337.329 93.3642 337.242 93.4141 337.403C93.3497 336.494 94.3452 335.234 94.4096 334.192C94.4865 334.154 94.5426 334.146 94.5883 334.15C94.2766 334.15 94.0272 334.038 93.8734 333.914C94.1041 333.508 94.0251 332.99 94.4158 333.017C94.26 333.259 94.3701 333.352 94.3951 333.522L94.5135 333.023C95.164 332.905 94.3244 333.688 94.6465 333.875C94.977 332.984 95.1744 331.784 95.7626 331.293C96.2489 331.444 94.9084 332.764 95.8312 332.219C95.5568 332.48 95.3428 332.785 95.0934 333.069C96.1803 332.745 94.7089 333.62 95.8041 333.386C96.6355 332.217 96.5149 331.919 97.4522 330.814C97.4273 330.387 97.0657 330.661 97.0407 330.23C97.897 328.22 99.0442 329.757 99.5139 328.174C99.5347 327.669 99.1731 327.111 100.16 326.535L100.304 327.19C101.343 326.241 100.327 326.063 101.675 325.308C101.63 325.65 100.981 326.204 101.185 326.104C102.191 325.768 101.467 325.412 102.016 324.902L102.457 325.166C103.49 324.069 104.658 322.845 105.95 321.744C105.952 321.914 105.799 322.192 106.216 322.107C107.041 321.446 108.01 320.855 108.993 320.329C110.016 319.869 111.084 319.525 112.04 319.194L112.557 318.464C112.73 318.404 112.948 318.518 112.798 318.665C113.599 318.526 112.73 318.404 113.019 318.112C113.43 317.919 113.669 318.12 113.453 318.34C114.031 317.923 114.895 317.378 115.81 316.921C116.753 316.5 117.768 316.202 118.555 316.183L118.312 316.392C119.484 316.197 119.326 315.149 120.498 315.228L120.318 315.358C122.826 314.803 125.488 313.723 127.542 313.928C127.77 313.234 130.079 313.669 130.071 312.799C131.599 312.925 131.208 313.162 133.305 313.054C133.862 312.992 134.024 312.381 134.689 312.167L134.789 312.6L135.635 311.96L136.235 312.387L136.865 312.136C136.597 312.169 136.271 312.061 136.285 311.927C137.25 311.527 138.841 311.655 138.943 311.844C139.733 311.519 140.525 311.09 141.283 310.663C141.302 310.864 140.914 311.065 140.621 311.289C141.776 310.383 141.047 311.653 142.09 310.741C141.886 310.723 142.065 310.462 142.05 310.368C142.755 310.368 144.1 309.61 144.877 308.852L144.889 309.223C146.587 308.097 147.924 306.475 149.275 304.803C148.672 305.313 148.385 304.821 148.732 304.318L149.258 304.419C149.281 303.928 148.709 304.809 148.946 303.953C149.482 303.383 149.711 303.86 149.541 304.316C149.707 304.032 149.865 303.746 149.992 303.441C150.139 303.477 150.071 303.707 150.183 303.862C150.156 303.367 151.546 302.722 151.405 301.952L151.552 301.976C152.627 300.111 152.885 299.16 153.514 297.571C153.148 297.389 153.473 296.8 153.346 296.22C153.878 295.109 154.603 293.889 154.94 292.438C155.004 291.382 154.682 292.061 154.555 291.552C154.934 291.566 155.225 290.12 155.316 290.924C155.636 289.181 155.717 288.688 155.767 286.454C155.578 286.67 155.47 286.924 155.366 286.767C155.37 286.363 155.663 285.891 155.827 285.973L155.852 286.083C155.665 283.57 157.59 280.528 157.02 278.541L157.047 278.651L156.871 276.647C157.06 275.764 157.072 277.217 157.392 276.589C157.083 274.413 158.001 273.389 158.107 271.705C159.448 270.839 159.751 267.467 161.439 266.535L161.173 266.456C161.239 265.959 161.613 266.131 161.85 265.921C161.67 265.828 161.383 266.145 161.439 265.845C163.557 262.67 167.593 261.114 171.288 260.134C172.639 259.724 171.687 258.623 173.634 258.721L173.248 259.316C175.949 257.952 179.187 258.224 182.068 257.502C181.9 257.627 181.904 257.772 181.617 257.797C182.182 258.095 184.134 257.579 184.069 257.299C184.576 257.275 184.219 257.54 184.549 257.637C185.273 257.714 186.185 256.92 186.605 257.163C186.678 257.2 186.443 257.326 186.322 257.37C186.728 257.111 188.369 256.904 187.85 256.626C189.078 256.502 189.999 255.781 190.976 255.675C191.381 255.018 192.971 255.107 192.879 254.425C193.062 255.047 195.016 254.011 195.5 253.35C195.375 253.646 196.165 253.205 196.045 253.59C196.791 253.155 197.414 252.66 197.109 252.446C198.865 252.26 199.409 250.231 200.675 250.511C202.539 248.76 204.129 247.065 205.682 245.451C206.062 245.986 203.886 247.156 204.399 247.606C205.831 245.971 206.365 244.761 207.953 243.383C208.404 243.064 207.932 243.8 207.878 244.009C209.223 242.349 210.782 241.095 211.775 239.458C211.819 239.504 211.736 239.701 211.648 239.881C211.873 239.585 212.282 239.289 212.031 239.127L211.856 239.452C211.15 239.614 212.135 237.751 212 237.558C212.241 238.582 213.365 236.298 213.544 237.741C213.658 237.519 213.75 237.198 213.56 237.113C213.835 236.872 213.993 236.854 213.941 237.285C214.643 236.145 214.103 236.315 214.853 235.385C214.963 235.476 214.857 235.7 214.911 235.903C215.071 235.252 215.229 234.606 215.955 233.889C215.986 233.99 216.148 233.967 215.959 234.201C216.975 232.788 217.131 231.388 218.469 230.024C218.654 230.836 219.01 229.622 219.506 229.856L219.968 228.944L219.517 229.121C220.043 228.408 220.186 227.544 220.778 227.034L220.57 227.695L221.468 226.298L220.747 226.932C221.055 226.048 220.136 226.607 220.959 225.747C220.861 225.973 221.493 225.034 222.025 224.856V224.86C222.15 224.407 222.275 223.936 222.778 223.493C223.019 223.462 223.175 223.961 223.333 223.942C223.231 223.325 224.486 222.218 224.44 221.493C224.419 221.707 224.638 221.887 224.721 221.876L224.652 221.365C224.997 221.114 225.078 221.101 225.218 221.292C226.028 220.362 224.432 221.178 225.569 220.208C225.521 220.318 225.598 220.308 225.494 220.53C226.521 219.469 227.08 218.163 228.077 217.231C228.749 217.266 227.433 218.225 228.077 218.163C229.225 216.601 230.147 214.653 231.494 213.331L231.218 213.553C230.802 212.832 232.44 212.769 232.847 211.885C232.726 212.086 232.943 212.388 232.926 212.287C233.944 211.524 234.545 210.256 235.912 208.88L235.85 209.176C236.555 208.855 237.471 208.055 238.161 207.635C238.234 207.33 238.618 207.073 238.23 207.011C239.535 206.694 240.516 206.081 241.403 205.308C242.278 204.522 243.249 203.901 244.454 203.884C244.213 203.994 243.953 204.297 244.145 204.214L245.784 203.285C245.525 203.037 245.483 203.198 245.02 203.12C245.163 202.842 245.599 202.475 246.038 202.287C245.331 202.846 246.229 202.755 246.649 202.848C246.555 202.772 246.636 202.626 246.57 202.539C247.713 202.801 246.506 201.856 247.937 201.82L247.923 202.009C248.38 201.771 248.763 201.406 249.305 201.286C249.625 201.59 248.835 201.624 248.891 201.939C249.6 201.661 250.159 200.795 250.943 201.045C250.646 201.217 250.186 201.315 249.893 201.485C250.745 201.769 250.799 201.64 251.363 201.597L251.306 201.599L252.605 201.537L252.262 201.483C253.009 200.264 254.133 200.927 255.34 200.15C254.158 200.915 255.178 200.532 255.133 200.979C255.473 201.062 255.978 201.139 255.852 201.278C256.421 200.878 256.864 201.396 257.681 200.871C257.726 201.01 258.329 200.863 258.208 201.222C258.986 201.085 258.013 200.983 258.069 200.805C259.281 200.266 260.914 201.278 262.675 200.733C264.202 200.496 264.522 200.136 265.975 200.024C266.426 200.297 265.524 200.492 265.524 200.492C266.268 200.768 266.842 200.803 267.584 200.77C267.419 200.869 267.555 200.996 267.746 201.188C268.321 201.244 268.213 200.743 268.937 201.07C268.777 201.203 268.567 201.425 268.265 201.537C268.959 201.503 269.668 201.387 270.389 201.414C270.52 201.694 269.893 201.69 269.62 201.796C270.414 201.849 271.672 202.001 272 201.704L271.539 201.441Z" fill="white"/>
</svg>
