<?xml version="1.0" encoding="UTF-8" standalone="no"?>
<!-- Generator: Adobe Illustrator 24.1.2, SVG Export Plug-In . SVG Version: 6.00 Build 0)  -->

<svg
   version="1.1"
   id="Layer_1"
   x="0px"
   y="0px"
   viewBox="300 250 1000 1000"
   style="enable-background:new 0 0 1500 1500;"
   xmlSpace="preserve"
   sodipodiDocname="BWENG.ai"
   xmlnsInkscape="http://www.inkscape.org/namespaces/inkscape"
   xmlnsSodipodi="http://sodipodi.sourceforge.net/DTD/sodipodi-0.dtd"
   xmlns="http://www.w3.org/2000/svg"
   xmlnsSvg="http://www.w3.org/2000/svg"><defs
 />
<style
   type="text/css"
   id="style2">
	.st0{fill:#FFD119;}
	.st1{fill:#1575BB;}
	.st2{fill:#017849;}
	.st3{opacity:0.35;fill:#FFD119;}
	.st4{fill:none;}
	.st5{fill:#FFFFFF;}
	.st6{font-family:'CooperBlack';}
	.st7{font-size:107.3462px;}
   	.st8{font-weight:bold;}
</style>
<g
   id="g10">
	<path
   class="st0"
   d="M769.53,622.75c-28.95,14.15-63.23,8.82-84.22-10.1c-22.67-20.43-15.23-66.59,16.64-70.58   c4.28-0.54,11.47-4.22,11.67-6.88c2.02-26.7,18.55-40.04,47.04-46.78c-23.49-5.11-43.5,5.9-49.76,26.45   c-3.88,12.76-11.79,17.48-22.07,24.07c-11.95,7.65-19.96,21.43-30.47,33.44c-14.89-6.67-24.73-22.23-23.01-42.29   c1.59-18.45,10.02-32.28,30.44-38.72c1.5,12.08,2.84,22.94,4.19,33.79c1.48-0.13,2.97-0.27,4.45-0.4   c0.74-11.18,0.42-22.55,2.39-33.51c9.66-53.64,65.33-77.03,110.9-46.73c25.59,17.01,37.23,42.19,39.55,71.96   c1,12.91-1.29,24.81-21.27,24.59c15.04,9.68,27.43,17.65,39.88,25.67c0.57-1.03,1.8-2.79,1.62-2.95   c-17.21-15-11.92-35.09-13.21-54.1c-2.33-34.41-20.63-59.89-49.05-77.94c15.2-36.17,110.28-39.19,135.67,3.29   c-8.89,8.11-17.79,16.22-26.69,24.33c0.95,2,1.89,4.01,2.84,6.01c31.14-19.42,64.94-32.93,91.64-0.81   c24.96,30.03,10.16,62.05-11.11,90.54c1.98,1.28,3.97,2.55,5.95,3.83c9.71-11.83,19.42-23.66,29.22-35.61   c18.13,8.58,27.76,27.31,24.83,51.51c-2.51,20.72-7.24,41.98-28.69,50.6c-17.66,7.1-37.24,9.43-56.79,17.9   c15.27,0.81,30.54,1.62,45.66,2.42c2.48,19.57-6.07,36.34-22.93,43.23c-20.57,8.41-30.72-7.7-41.64-19.52   c-12.86-13.92-13.36-31.67-2.83-45.74c2.91-3.89,6.72-7.23,10.55-10.29c22.67-18.17,24.46-32.56,7.76-56.83   c-6.22-9.04-11.49-18.81-16.31-28.67c-1.3-2.65,0.62-6.87,1.35-12.61c8.34,4.45,15.16,8.09,23.41,12.49   c-6.91-25.01-33.97-35.54-58.47-21.81c8.06,2.66,13.86,4.57,19.66,6.49c-1.29,0.73-2.58,1.46-3.86,2.18   c8.41,16.46,15.99,33.41,25.43,49.26c11.57,19.43,11.35,26.2-5.04,39.43c-30.94,24.96-31.98,60.12,0.09,84.01   c17.96,13.38,19.69,28.3,14.01,46.7c-1.25,4.05-5.44,9.62-8.74,9.96c-3.62,0.37-8.04-4.2-11.58-7.23   c-1.71-1.46-2.94-4.26-3.14-6.57c-2.85-33.03-21.79-52.78-50.41-67.63c-9.71-5.04-17.55-19.29-20.33-30.77   c-4.58-18.88,8.62-31.92,30.91-35.18c7.38-1.08,14.82-1.72,22.24-2.56c0.08-2.46,0.15-4.92,0.23-7.39   c-10.54-1.33-21.07-2.65-33.8-4.26c1.3-5.17,2.45-10.82,4.17-16.3c6.51-20.86,6.24-40.98-3.48-61.19   c-12.02-24.97-13.51-49.75,12.59-74.34c-19.94,5.43-29.05,15.35-29.44,31.72c-0.31,13.26,0.49,27.86,5.73,39.68   c12.39,27.95,8.72,53.69-3.07,80.35c-8.76,19.82-15.54,40.51-23.85,62.51c-38.64,1.43-71.41-26.95-73.51-69.12   c-0.31-6.18,5.68-13.9,10.74-18.88c17.23-16.97,20.97-33.09,12.03-49.11c-4.92,12.51-7.06,30.32-17.08,39.95   c-9.85,9.47-27.7,10.64-42.06,15.46c-1.1-1.33,0.25,1.7,1.57,1.69c23.72-0.3,27.23,17.08,31.48,34.57   C761.99,607.09,766.01,614.21,769.53,622.75z"
   id="path4" />
	<path
   class="st1"
   d="M820.5,361.95c38.18-2.03,74.47,6.68,110.42,18.38c15.7,5.11,31.9,8.82,48.06,12.32   c12.3,2.66,23.39-2.2,33.64-8.51c6.61-4.07,6.75-8.41,0.08-12.31c-20.22-11.81-40.36-23.84-61.18-34.53   c-34.26-17.6-71.6-25-109.38-30.04c-56.52-7.55-112.5-3.49-167.39,11.43c-19.61,5.33-39.58,12.01-56.97,22.2   c-30.85,18.07-59.84,39.11-81.96,68.34c-10.14,13.4-20.66,26.26-28.11,41.51c-10.11,20.68-16.24,42.49-17.83,65.22   c-1.41,20.16-8.69,36.4-22.24,51.58c-19.6,21.96-45.96,32.8-70.19,47.27c-12.52,7.48-23.68,16.01-29.43,30.09   c-2.99,7.31-2.11,13.49,4.08,18.64c6.63,5.52,13.75,10.56,19.8,16.65c11.89,11.95,22.03,25.42,25.94,42.13   c8.13,34.74,6.92,69.71-1.44,104.12c-3.4,13.99-9.82,27.45-16.29,40.45c-11.13,22.35-11.44,44.82,2.58,64.73   c11.73,16.64,29.31,27.29,51.11,27.04c11.84-0.13,23.69-1.84,35.51-1.56c13.51,0.32,27.6-0.03,40.33,3.7   c15.78,4.63,30.09,13.67,38.97,28.71c15,25.4,19.48,52.89,16.03,81.96c-1.04,8.79,2.99,12.52,10.92,11   c16.56-3.18,32.81-1.17,48.88,3.26c2.59,0.71,5.24,1.61,7.88,1.68c4.9,0.13,7.22-2.15,7.9-7.52c5.22-41.14-4.41-79.57-21.6-116.38   c-7.28-15.58-16.61-30.2-24.98-45.28c-12.58-22.66-25.66-45.07-37.56-68.09c-10.18-19.7-19.89-39.75-28.14-60.32   c-6.4-15.95-11.29-32.7-14.93-49.5c-4.28-19.7-7.76-39.76-9.21-59.84c-1.32-18.26-0.06-36.79,1.21-55.12   c0.92-13.26,2.08-26.9,6.03-39.46c6.62-21.04,14.23-42,23.91-61.78c8.06-16.47,18.53-32.11,30.03-46.43   c12.15-15.13,25.94-29.22,40.54-42.04c20.79-18.26,43.57-33.97,69.13-45.25c21.23-9.37,42.79-17.64,65.75-21.73   c9.91-1.76,19.75-4.07,29.73-5.18C800.2,362.36,810.38,362.42,820.5,361.95z"
   id="path6" />
	<path
   class="st2"
   d="M937.36,586.06c-5.27-13.52-23.73-13.96-29.73-0.77c-10.74,23.61-20.35,45.1-32.47,64.97   c-23.46,38.45-45.97,79.5-77.29,110.41c-46.32,45.71-55.01,82.95-37.64,154.84c12.16,50.34,30.65,104.7,46.58,156.41   c0.79,2.57,3.26,4.18,5.86,3.84c62.83-8.23,126.1-17.25,188.57-0.85c6.73,1.77,9.82-8.45,3.22-10.67   c-0.11-0.04-0.23-0.08-0.34-0.11c-33.94-10.97-39.02-38.67-40.12-68.26c-2.32-62.6,16.14-111.46,58.07-149.92   c93.31-89.49,130.28-210.6,90.85-325.59c-20.76-60.55-29.17-79.87-61.42-110.04c-17.72-16.58-45.8,1.54-38.71,25.1   c0.94,3.12,2.1,6.27,3.4,9.42c9.36,22.54,19.52,44.79,30.66,66.45c32.18,62.6,19.3,121.73-14.69,177.56   c-14.16,23.25-33.93,43.17-52.74,63.02c-15.76,16.63-37.87,19.01-52.09,2.39c-9.17-10.72-11.49-32.28-9.12-47.71   c3.15-20.49,14.64-39.47,21.16-59.58C945.95,626.67,945.65,607.31,937.36,586.06z"
   id="path8" />
</g>
<g
   id="g18">
	<polyline
   class="st3"
   points="522.55,1223.02 290.13,1223.27 517.53,1177.52 290.13,1131.77 522.55,1132.02 310.11,1042.27    537.41,1088.51 349.22,958.68 561.44,1048.89 405.72,884.66 593.6,1014.89 477.16,823.44 632.49,988 560.42,777.69 676.4,969.4    651.84,749.41 723.42,959.88 747.45,739.85 771.48,959.88 843.06,749.41 818.5,969.4 934.48,777.69 862.41,988 1017.74,823.44    901.3,1014.89 1089.18,884.66 933.46,1048.89 1145.69,958.68 957.49,1088.51 1184.79,1042.27 972.35,1132.02 1204.77,1131.77    977.37,1177.52 1204.77,1223.27 972.35,1223.02  "
   id="polyline12" />
	<rect
   x="502.76"
   y="1114.01"
   class="st4"
   width="530.26"
   height="109.26"
   id="rect14" />
	<text
   transform="matrix(1 0 0 1 502.76 1185.6572)"
   class="st5 st6 st7 st8"
   id="text16">BWENGE</text>
</g>
</svg>

